<?xml version="1.0" standalone="no"?>
<!DOCTYPE svg PUBLIC "-//W3C//DTD SVG 20010904//EN"
 "http://www.w3.org/TR/2001/REC-SVG-20010904/DTD/svg10.dtd">
<svg version="1.0" xmlns="http://www.w3.org/2000/svg"
 width="5256.000000pt" height="3504.000000pt" viewBox="0 0 5256.000000 3504.000000"
 preserveAspectRatio="xMidYMid meet">
<metadata>
Created by potrace 1.16, written by Peter Selinger 2001-2019
</metadata>
<g transform="translate(0.000000,3504.000000) scale(0.100000,-0.100000)"
fill="#000000" stroke="none">
<path d="M0 17520 l0 -17520 26280 0 26280 0 0 17520 0 17520 -26280 0 -26280
0 0 -17520z m40400 6440 c28 -11 64 -20 80 -20 16 0 32 -5 35 -10 4 -6 12 -9
19 -8 11 3 41 -8 143 -53 23 -10 53 -30 67 -44 14 -14 29 -26 33 -27 5 0 24
-11 44 -24 20 -12 52 -29 70 -37 60 -25 208 -209 188 -233 -7 -9 -6 -15 6 -21
20 -12 37 -110 39 -225 1 -49 4 -88 8 -88 3 0 5 -15 4 -32 -1 -18 4 -52 10
-76 12 -42 3 -112 -14 -112 -12 0 -10 -65 2 -72 7 -5 7 -8 -3 -8 -7 0 -11 -6
-7 -15 3 -8 -1 -21 -9 -29 -17 -16 -20 -41 -5 -31 5 3 7 0 4 -9 -3 -8 -12 -12
-21 -9 -12 5 -14 1 -8 -17 5 -15 4 -20 -4 -16 -6 4 -11 0 -11 -9 0 -12 -5 -15
-16 -11 -13 5 -15 2 -11 -14 3 -11 2 -20 -1 -20 -9 0 -32 -50 -32 -67 0 -8 -7
-16 -15 -19 -8 -4 -15 -13 -15 -22 0 -21 -29 -52 -50 -52 -10 0 -23 -7 -30
-15 -7 -8 -19 -15 -26 -15 -8 0 -16 -11 -20 -24 -6 -25 -29 -40 -45 -30 -6 3
-17 -13 -26 -35 -9 -22 -19 -38 -23 -36 -4 2 -16 -3 -26 -13 -12 -11 -38 -18
-74 -19 -30 -1 -56 -7 -58 -13 -8 -23 -71 -37 -174 -38 -86 -2 -109 1 -122 13
-9 9 -16 12 -16 6 0 -6 -15 -4 -36 5 -20 9 -47 13 -60 10 -12 -3 -26 -2 -29 4
-4 7 -12 7 -25 0 -24 -13 -80 -13 -80 0 0 6 -7 10 -15 10 -8 0 -23 4 -33 9 -9
5 -39 17 -65 26 -36 13 -47 21 -42 32 4 13 -1 15 -31 10 -30 -5 -37 -3 -41 14
-4 15 -8 17 -19 8 -11 -9 -13 -9 -10 2 3 8 -9 25 -27 39 -17 14 -27 18 -22 10
5 -8 -5 -4 -22 10 -18 14 -35 33 -38 43 -4 9 -11 17 -16 17 -5 0 -9 7 -9 15 0
8 -4 15 -10 15 -5 0 -10 6 -10 13 0 12 -7 23 -49 73 -5 6 -12 20 -15 32 -4 12
-12 22 -17 22 -5 0 -9 6 -9 13 0 8 -9 22 -19 31 -11 10 -17 24 -14 32 3 8 0
14 -7 14 -7 0 -10 7 -7 14 3 8 -5 35 -18 60 -13 24 -21 47 -18 50 4 3 1 6 -4
6 -6 0 -14 18 -18 40 -5 28 -12 40 -23 40 -15 1 -15 2 1 11 10 6 14 15 10 22
-4 7 -8 21 -9 32 -1 11 -4 29 -9 40 -5 16 -5 17 4 5 8 -11 10 0 7 43 -4 68 8
135 35 194 10 24 19 49 19 57 0 8 5 18 10 21 8 5 7 11 -1 21 -6 8 -7 14 -2 14
10 0 38 59 48 102 4 15 22 39 41 53 19 15 32 30 29 36 -3 5 1 6 11 2 13 -5 15
-2 9 17 -5 15 -4 20 4 16 7 -5 11 2 11 18 0 17 6 26 15 26 9 0 18 7 21 15 4 8
12 15 19 15 25 0 62 25 57 39 -3 10 0 12 12 8 10 -4 15 -3 11 3 -10 17 5 32
20 20 9 -7 16 -6 24 4 7 8 19 12 27 9 8 -3 26 5 39 17 14 13 33 24 42 25 10 0
29 8 43 17 23 14 67 26 129 34 13 2 26 5 29 8 3 3 52 6 108 6 80 0 115 -5 154
-20z m279 -3484 c5 -3 25 -8 45 -10 20 -3 65 -19 100 -36 35 -16 69 -30 76
-30 12 0 126 -75 145 -96 6 -6 33 -25 60 -42 63 -39 107 -86 140 -148 21 -39
27 -63 27 -118 1 -49 -3 -72 -13 -80 -16 -12 -22 -96 -8 -96 5 0 9 -4 9 -10 0
-5 -7 -10 -15 -10 -16 0 -19 -19 -9 -68 5 -22 10 -28 24 -25 10 3 21 0 24 -6
4 -6 3 -11 -3 -11 -21 0 6 -44 38 -61 23 -12 27 -18 17 -22 -12 -5 -13 -12 -5
-37 6 -16 14 -30 19 -30 15 0 28 -118 18 -175 -10 -54 -50 -146 -66 -153 -13
-5 -17 -20 -17 -64 0 -32 3 -58 7 -58 5 0 8 5 8 11 0 5 5 7 11 4 6 -4 8 -14 4
-23 -3 -8 0 -19 7 -24 9 -5 9 -8 1 -8 -7 0 -10 -12 -7 -35 2 -19 0 -35 -5 -35
-6 0 -8 -10 -6 -22 3 -12 0 -27 -6 -35 -7 -7 -8 -13 -3 -13 5 0 2 -5 -6 -10
-18 -11 -21 -80 -4 -80 6 0 17 -13 24 -30 7 -16 17 -27 22 -24 6 4 8 -2 3 -15
-3 -11 -3 -21 2 -21 5 0 8 -19 8 -42 0 -24 3 -69 8 -101 7 -47 5 -63 -7 -83
-9 -13 -13 -24 -9 -24 5 0 9 -16 10 -35 2 -24 -2 -37 -15 -44 -14 -9 -15 -12
-3 -20 10 -7 12 -21 8 -54 -4 -25 -2 -47 3 -49 20 -7 27 -200 9 -255 -6 -18
-8 -37 -5 -41 3 -5 1 -23 -4 -41 -5 -19 -5 -31 1 -31 5 0 9 -13 9 -29 0 -17 5
-33 10 -36 6 -3 10 -15 10 -26 0 -13 -4 -18 -12 -13 -7 5 -8 3 -3 -6 5 -7 10
-65 12 -129 4 -135 4 -119 -2 -241 -5 -97 -5 -129 -1 -165 1 -11 -2 -26 -7
-33 -7 -8 -6 -17 1 -24 7 -7 7 -19 1 -35 -10 -28 -3 -101 13 -120 7 -9 7 -13
0 -13 -6 0 -4 -20 5 -52 18 -62 17 -129 -2 -172 -5 -11 -4 -21 3 -25 6 -4 7
-12 3 -20 -5 -7 -6 -21 -4 -31 3 -10 0 -21 -6 -24 -6 -4 -11 -12 -11 -17 0 -6
5 -7 10 -4 6 3 10 1 10 -4 0 -6 -3 -11 -8 -11 -8 0 -8 -241 0 -256 2 -5 4 -30
4 -55 -1 -33 3 -45 12 -42 16 7 15 -5 -2 -23 -10 -10 -12 -22 -6 -43 4 -15 4
-34 0 -40 -4 -7 -4 -30 0 -51 4 -21 4 -44 -1 -51 -4 -7 -5 -17 -3 -21 3 -4 0
-8 -6 -8 -8 0 -8 -6 0 -21 6 -11 8 -33 5 -50 -4 -19 -3 -29 5 -29 6 0 8 -5 5
-10 -4 -6 -10 -8 -13 -6 -4 2 -8 -18 -8 -44 0 -27 2 -47 5 -45 9 5 6 -89 -3
-103 -4 -7 -2 -12 4 -12 6 0 9 -4 6 -9 -3 -4 -1 -23 4 -42 6 -21 6 -35 0 -39
-6 -4 -6 -19 -1 -40 15 -59 21 -126 10 -109 -7 9 -8 -5 -4 -46 10 -80 13 -238
6 -250 -8 -15 -7 -49 1 -56 13 -9 16 -73 5 -87 -8 -10 -7 -16 3 -22 12 -7 12
-10 -2 -15 -14 -6 -14 -10 -2 -33 9 -19 10 -30 2 -39 -8 -10 -6 -13 6 -13 13
0 15 -6 9 -27 -3 -16 -6 -36 -5 -45 0 -10 -3 -18 -9 -18 -13 0 -12 -97 1 -105
8 -5 8 -11 0 -20 -6 -7 -8 -20 -4 -29 3 -9 1 -16 -6 -16 -6 0 -8 -5 -4 -12 12
-19 12 -48 0 -48 -7 0 -7 -3 1 -8 6 -4 13 -29 14 -54 2 -26 8 -49 14 -51 6 -3
9 -22 7 -43 -6 -71 -5 -120 1 -130 3 -5 4 -34 3 -62 -3 -42 0 -52 10 -48 8 3
14 1 14 -4 0 -6 -4 -10 -10 -10 -5 0 -10 -10 -10 -22 0 -17 3 -19 9 -9 5 8 8
-7 7 -40 -1 -30 -4 -58 -8 -64 -3 -5 -13 -41 -22 -80 -9 -38 -22 -88 -27 -110
-6 -22 -11 -41 -10 -43 1 -2 -9 -12 -23 -23 -15 -11 -26 -26 -26 -32 0 -19
-166 -187 -184 -187 -3 0 -16 -11 -30 -25 -14 -14 -34 -25 -44 -25 -11 0 -22
-7 -26 -15 -3 -8 -18 -15 -33 -15 -14 0 -37 -10 -49 -21 -22 -21 -58 -31 -116
-33 -14 -1 -25 -3 -23 -6 2 -4 -5 -11 -16 -18 -11 -7 -19 -8 -19 -2 0 12 -53
9 -62 -4 -7 -11 -58 -18 -58 -8 0 4 -25 7 -55 7 -40 0 -54 -3 -50 -13 3 -9 -5
-8 -32 3 -33 14 -38 14 -55 -2 -15 -13 -34 -17 -80 -15 -34 2 -68 8 -75 13 -7
6 -20 8 -29 5 -10 -4 -30 4 -50 19 -18 14 -39 25 -48 25 -8 0 -21 8 -28 18
-12 17 -41 34 -61 36 -5 1 -14 9 -21 19 -7 9 -18 17 -23 17 -6 0 -32 20 -59
45 -26 25 -50 45 -52 45 -8 0 -41 46 -42 58 0 7 -7 15 -15 18 -8 4 -15 13 -15
21 0 8 -13 28 -30 45 -16 16 -30 35 -30 42 0 6 -9 19 -20 29 -11 9 -20 26 -20
36 0 11 -4 23 -10 26 -5 3 -10 16 -10 28 1 33 -5 66 -13 73 -4 4 -7 22 -7 41
0 18 -3 33 -7 33 -5 0 -6 23 -4 51 2 36 -1 54 -10 60 -11 8 -11 11 4 20 12 7
15 15 9 22 -5 7 -9 36 -8 65 1 30 -1 55 -4 57 -3 2 -4 115 -2 252 1 136 3 288
2 337 0 49 4 94 9 100 7 8 8 111 1 111 -1 0 -2 75 -4 167 -2 93 -8 173 -13
180 -6 7 -14 31 -18 53 -4 22 -11 42 -16 45 -5 3 1 25 12 47 22 45 23 49 34
131 6 44 4 56 -11 74 -18 20 -18 21 -1 15 13 -5 16 -3 10 6 -10 15 -10 147 -1
147 11 0 6 93 -5 107 -5 7 -6 17 -2 23 4 6 1 17 -5 25 -8 10 -9 15 -2 15 7 0
8 10 2 30 -5 17 -5 30 0 30 5 0 9 66 9 148 -1 81 2 171 4 201 3 30 2 83 -2
118 -4 35 -5 66 -2 68 3 3 4 52 2 108 -4 140 -4 137 -15 137 -6 0 -5 5 2 12 8
8 8 15 2 23 -12 15 -29 102 -22 110 6 5 8 27 16 153 3 46 10 89 15 96 6 7 8
16 5 19 -8 8 -13 102 -18 309 -2 116 -7 172 -16 183 -10 12 -10 15 0 15 9 0
11 13 5 53 -4 28 -7 57 -7 62 0 6 1 21 1 35 0 14 0 87 -2 162 -1 76 0 138 3
138 3 0 3 41 1 92 -3 79 -6 95 -27 116 -12 14 -21 29 -19 33 3 4 -2 19 -9 35
-17 31 -9 53 30 88 26 23 32 65 20 151 -4 28 -7 57 -6 65 1 28 0 155 -3 212
-1 32 -6 58 -11 58 -5 0 -4 6 1 13 6 6 10 45 9 85 0 39 2 72 5 72 3 0 6 39 7
88 0 48 6 137 12 197 5 61 10 127 10 149 0 21 3 43 8 50 5 6 14 30 22 54 7 23
19 47 27 53 7 6 13 17 13 24 0 7 14 26 30 42 17 15 30 34 30 41 0 7 11 18 25
24 14 6 25 19 25 30 0 10 6 18 14 18 8 0 37 18 65 40 28 22 54 40 59 40 5 0
33 18 63 41 48 36 83 56 114 63 6 2 23 8 38 14 16 7 39 12 53 12 13 0 24 3 24
8 0 4 17 8 38 9 20 2 62 7 92 12 55 10 211 8 229 -3z m-5694 -440 c17 -3 98
-8 180 -11 83 -3 175 -10 205 -14 30 -5 70 -6 89 -4 27 5 37 1 56 -21 12 -14
28 -26 34 -26 6 0 28 -7 49 -16 20 -10 46 -19 57 -21 65 -12 155 -38 189 -54
22 -11 44 -19 49 -19 6 0 28 -9 51 -19 83 -39 112 -50 151 -56 22 -4 47 -13
55 -20 24 -19 121 -69 165 -84 22 -8 70 -33 107 -57 37 -24 82 -51 100 -60 18
-9 71 -42 118 -72 47 -30 101 -65 120 -77 130 -82 184 -121 237 -167 98 -87
165 -143 170 -143 6 0 73 -61 123 -110 14 -14 30 -25 35 -25 6 -1 27 -22 47
-48 21 -26 55 -65 75 -87 21 -22 50 -56 65 -75 15 -19 66 -80 112 -135 47 -55
86 -103 86 -107 0 -4 14 -22 30 -40 17 -18 30 -36 30 -40 0 -7 90 -158 100
-168 29 -29 190 -319 190 -342 0 -5 8 -21 17 -35 18 -27 30 -55 61 -143 9 -25
28 -65 43 -90 29 -49 35 -65 44 -124 6 -43 31 -139 45 -171 12 -29 31 -102 35
-135 2 -16 6 -34 10 -40 15 -25 35 -196 40 -340 3 -85 8 -193 12 -240 12 -126
9 -350 -6 -475 -7 -60 -14 -135 -16 -165 -13 -174 -37 -295 -85 -430 -18 -49
-37 -90 -41 -90 -5 0 -9 -11 -9 -25 0 -14 -4 -25 -10 -25 -5 0 -9 -8 -8 -17 4
-32 -13 -97 -38 -150 -13 -28 -24 -56 -24 -62 0 -10 -40 -82 -50 -91 -3 -3
-14 -21 -23 -40 -10 -19 -26 -48 -35 -65 -10 -16 -19 -46 -21 -65 -1 -19 -7
-40 -12 -46 -5 -6 -5 -14 -1 -18 4 -4 0 -13 -8 -19 -9 -7 -22 -26 -29 -43 -7
-18 -27 -40 -47 -50 -26 -14 -43 -36 -65 -81 -16 -35 -38 -67 -47 -72 -10 -5
-28 -31 -41 -58 -14 -26 -37 -61 -53 -78 -71 -76 -98 -109 -98 -121 0 -8 -9
-14 -20 -14 -11 0 -20 -7 -20 -15 0 -8 -7 -15 -15 -15 -9 0 -15 -6 -13 -13 2
-7 -14 -31 -34 -53 -21 -21 -37 -42 -38 -47 0 -11 -66 -67 -79 -67 -6 0 -11
-5 -11 -11 0 -14 -25 -39 -39 -39 -6 0 -11 -7 -11 -15 0 -8 -13 -21 -30 -30
-16 -9 -45 -32 -62 -52 -18 -20 -41 -45 -50 -55 -10 -10 -18 -22 -18 -28 0 -5
-4 -10 -10 -10 -5 0 -18 -7 -27 -16 -61 -53 -99 -84 -106 -84 -5 0 -24 -12
-44 -27 -19 -15 -45 -29 -56 -30 -12 -2 -24 -9 -29 -15 -4 -7 -10 -10 -13 -7
-3 4 -20 -8 -38 -25 -41 -39 -89 -76 -99 -76 -5 0 -22 -13 -39 -30 -17 -16
-40 -32 -50 -35 -11 -4 -19 -10 -19 -15 0 -4 -8 -10 -17 -14 -10 -3 -25 -9
-33 -14 -38 -22 -61 -32 -75 -32 -8 0 -15 -5 -15 -10 0 -6 -10 -15 -22 -20
-13 -5 -34 -18 -48 -27 -23 -17 -24 -17 -17 0 4 11 3 16 -3 12 -6 -3 -10 -12
-10 -19 0 -7 -8 -13 -17 -13 -57 1 -72 -3 -67 -18 4 -11 2 -13 -9 -10 -8 4
-22 -1 -31 -10 -9 -9 -24 -16 -33 -15 -22 2 -63 -10 -63 -19 0 -3 -10 -7 -22
-7 -25 -1 -69 -16 -136 -45 -23 -11 -54 -19 -67 -19 -14 0 -25 -5 -25 -11 0
-5 -4 -8 -9 -5 -9 6 -56 -7 -109 -31 -18 -8 -49 -17 -68 -20 -18 -3 -34 -8
-34 -12 0 -3 -17 -6 -38 -7 -59 -1 -134 -14 -167 -29 -25 -12 -154 -33 -205
-34 -8 0 -60 -4 -115 -10 -55 -5 -150 -10 -210 -11 -297 -4 -386 -3 -455 4
-41 4 -88 7 -104 7 -15 -1 -61 8 -101 19 -40 11 -91 22 -113 24 -22 3 -49 9
-60 15 -11 6 -59 15 -107 20 -48 6 -92 14 -99 19 -6 5 -29 12 -51 16 -22 4
-56 13 -75 20 -19 8 -87 31 -150 51 -124 40 -234 87 -245 104 -3 6 -10 9 -15
6 -5 -3 -26 3 -47 14 -21 10 -63 30 -93 44 -142 64 -189 88 -195 97 -3 5 -25
18 -48 28 -23 10 -48 26 -56 35 -7 10 -19 17 -25 17 -6 0 -33 18 -61 40 -27
22 -55 40 -60 40 -6 0 -22 11 -37 25 -15 14 -31 25 -35 25 -5 0 -24 15 -43 33
-19 18 -51 44 -70 59 -19 14 -49 39 -67 55 -17 15 -65 52 -107 81 -42 29 -76
57 -76 63 0 5 -6 9 -14 9 -13 0 -60 45 -114 108 -11 12 -24 22 -31 22 -6 0
-10 4 -8 8 1 4 -15 23 -35 41 -21 18 -38 39 -38 46 0 12 -27 43 -140 163 -27
29 -64 74 -82 100 -17 26 -40 54 -50 63 -10 9 -18 20 -18 25 0 5 -8 17 -17 25
-33 29 -61 67 -79 105 -10 22 -21 41 -24 44 -3 3 -17 28 -30 55 -14 28 -32 59
-41 70 -37 45 -96 166 -126 258 -3 9 -9 17 -13 17 -4 0 -7 14 -8 32 0 17 -5
34 -11 37 -14 9 -41 75 -41 100 0 23 -31 94 -42 99 -5 2 -8 14 -8 27 0 12 -7
35 -15 51 -8 16 -17 49 -20 74 -4 25 -10 54 -15 65 -12 26 -47 178 -55 235 -4
25 -11 65 -16 90 -31 140 -44 746 -21 950 8 63 15 132 17 152 2 20 11 77 19
125 9 48 17 111 20 138 6 66 17 114 27 121 5 3 9 14 9 25 0 10 4 19 9 19 5 0
12 19 15 43 6 38 72 237 126 377 21 55 75 175 96 213 8 15 13 31 10 35 -3 5 4
21 15 38 11 16 30 52 43 79 13 28 40 72 60 98 20 26 59 83 86 125 28 42 58 88
67 101 10 13 25 35 33 50 8 14 18 28 22 31 4 3 19 23 34 45 34 51 104 128 384
423 8 8 37 30 65 48 79 52 137 94 154 112 21 21 147 102 158 102 5 0 18 8 29
18 21 18 47 34 126 76 25 14 64 37 85 52 45 30 355 184 371 184 7 0 12 5 12
12 0 6 3 9 6 5 4 -3 23 2 44 13 21 11 40 17 42 15 3 -3 25 5 49 18 24 13 64
29 89 36 25 7 66 22 91 32 110 44 452 121 599 135 30 3 66 9 80 13 14 5 73 9
130 10 57 1 107 5 110 8 6 6 348 -4 395 -11z m-21135 -136 c14 -5 41 -11 60
-14 19 -3 67 -10 105 -15 39 -6 92 -12 118 -15 49 -5 276 -79 312 -101 11 -7
36 -16 55 -20 31 -7 78 -24 120 -45 9 -4 54 -15 100 -25 50 -11 98 -28 116
-42 17 -13 35 -23 41 -23 5 0 18 -9 29 -21 10 -11 32 -27 49 -35 16 -7 39 -19
50 -26 11 -7 39 -25 63 -40 24 -16 46 -28 50 -28 4 0 31 -18 61 -40 29 -22 59
-40 67 -40 8 0 14 -4 14 -9 0 -5 25 -22 55 -37 30 -16 55 -32 55 -36 0 -4 7
-8 14 -8 8 0 45 -29 83 -65 37 -35 79 -69 94 -76 30 -12 139 -111 139 -126 0
-5 14 -19 30 -31 17 -13 30 -29 30 -37 0 -8 6 -15 14 -15 7 0 44 -31 83 -68
94 -92 139 -125 174 -127 16 -1 29 1 29 5 0 4 16 15 35 24 19 9 35 21 35 26 0
4 16 18 35 30 19 12 35 27 35 34 0 6 14 17 31 23 17 7 33 21 36 32 3 11 11 22
18 25 20 7 127 91 154 120 14 14 30 26 36 26 7 0 24 14 38 31 14 17 30 28 36
25 7 -4 8 -1 5 8 -4 10 2 17 20 22 15 3 31 15 37 25 5 11 19 19 29 19 11 0 20
7 20 15 0 9 12 21 28 28 19 8 26 18 24 31 -2 11 0 16 7 12 5 -4 20 -1 33 6 25
14 25 15 88 63 47 36 195 115 214 115 6 0 17 9 24 20 7 12 18 20 25 19 20 -2
57 13 57 23 0 6 7 8 15 4 8 -3 15 -2 15 2 0 13 226 110 243 104 4 -1 28 8 53
20 26 12 53 21 60 21 8 0 14 3 14 7 0 7 64 32 77 29 4 -1 26 1 48 6 22 4 49 9
59 11 34 6 91 27 96 35 3 5 40 10 81 12 42 2 80 7 86 10 5 3 27 7 49 8 21 1
48 8 60 15 13 8 50 12 97 11 43 -1 78 2 80 7 2 5 21 10 43 12 76 5 454 5 471
0 36 -11 81 -17 193 -27 63 -5 135 -14 160 -20 83 -19 135 -29 180 -34 24 -3
47 -9 50 -14 3 -4 22 -11 43 -14 21 -3 63 -18 94 -32 31 -15 71 -28 90 -30 19
-1 39 -7 46 -14 6 -6 18 -11 27 -11 8 0 28 -7 44 -15 15 -8 33 -15 40 -15 6 0
36 -12 66 -27 30 -15 60 -27 65 -27 6 0 24 -10 40 -21 17 -12 46 -27 65 -35
19 -7 42 -19 50 -26 8 -7 27 -15 42 -19 15 -4 32 -13 39 -21 6 -8 18 -14 25
-14 8 0 14 -4 14 -9 0 -5 8 -11 18 -15 9 -3 42 -23 73 -44 31 -20 84 -55 117
-77 34 -22 61 -46 61 -52 1 -7 9 -13 20 -13 22 0 44 -23 33 -35 -4 -5 2 -5 12
-1 26 9 99 -41 93 -65 -3 -11 0 -15 12 -12 21 5 61 -29 61 -51 0 -11 7 -16 18
-14 14 2 57 -23 105 -62 4 -4 10 -19 13 -35 4 -24 3 -27 -10 -16 -8 7 -20 10
-26 6 -5 -3 -10 -1 -10 5 0 7 -8 9 -21 5 -15 -5 -19 -4 -15 4 4 6 -1 14 -11
17 -10 3 -30 12 -46 20 -15 8 -32 12 -39 8 -8 -5 -9 -2 -4 12 4 10 11 26 14
34 4 11 1 10 -12 -3 -17 -17 -19 -17 -31 0 -7 10 -11 21 -8 26 2 4 -7 6 -21 3
-20 -4 -26 -1 -26 13 0 12 -13 21 -37 29 -20 6 -39 9 -43 7 -4 -2 -5 6 -3 19
4 19 -1 25 -24 31 -15 5 -32 7 -37 6 -5 -1 -6 5 -3 14 4 9 1 15 -9 15 -8 0
-12 -5 -9 -11 4 -6 -15 6 -43 26 -28 19 -53 43 -56 51 -4 11 -14 15 -31 11
-21 -3 -24 -1 -20 13 4 13 -2 19 -26 24 -17 3 -42 6 -54 6 -13 0 -26 8 -29 17
-6 13 -9 14 -15 4 -7 -10 -11 -9 -23 3 -9 8 -24 13 -34 11 -11 -2 -38 -6 -61
-8 -34 -4 -41 -2 -36 10 3 8 0 19 -8 24 -21 13 -29 11 -29 -8 -1 -11 -6 -5
-15 14 -7 17 -23 34 -34 38 -11 3 -20 11 -18 18 1 6 -8 13 -20 15 -13 2 -23 7
-23 12 0 17 -64 30 -100 20 -29 -8 -37 -7 -47 6 -6 9 -30 18 -52 20 -23 2 -51
12 -62 23 -21 19 -21 19 -56 0 -19 -11 -38 -17 -44 -14 -5 4 -6 -2 -2 -12 5
-15 3 -16 -8 -5 -7 6 -21 12 -30 12 -10 0 -20 6 -22 13 -9 20 -28 -15 -20 -37
4 -15 -1 -13 -21 9 -30 32 -64 42 -72 21 -3 -8 -12 -17 -19 -20 -16 -6 -8 24
9 36 6 4 7 10 3 15 -5 4 -12 1 -18 -7 -8 -13 -11 -13 -20 3 -6 9 -14 15 -20
12 -5 -4 -9 -1 -9 4 0 6 6 11 14 11 8 0 18 5 22 12 5 8 2 9 -9 5 -10 -3 -17
-2 -17 2 0 5 -20 7 -45 5 -35 -4 -45 -1 -45 11 0 18 -21 20 -38 3 -9 -9 -12
-9 -12 1 0 9 -6 11 -17 6 -26 -11 -73 -13 -78 -4 -6 9 -45 -1 -45 -12 0 -21
-40 -7 -52 18 -10 22 -20 28 -48 29 -19 1 -42 4 -51 8 -10 4 -23 0 -33 -9 -11
-12 -25 -15 -42 -11 -35 9 -61 -1 -67 -24 -3 -13 -11 -18 -21 -14 -9 4 -16 1
-16 -6 0 -7 -7 -10 -16 -6 -9 4 -22 1 -28 -6 -6 -7 -10 -11 -9 -9 2 2 -7 10
-20 16 -18 10 -26 9 -45 -9 -19 -17 -26 -18 -42 -8 -27 16 -27 16 -39 -18 -9
-28 -34 -44 -28 -18 1 6 -19 19 -45 28 -39 15 -45 15 -41 3 4 -11 0 -14 -18
-11 -18 2 -23 8 -21 23 3 18 2 18 -13 -3 -9 -12 -13 -28 -10 -35 4 -6 -1 -3
-10 8 -13 17 -17 18 -25 5 -8 -13 -12 -12 -25 5 -16 19 -16 19 -10 1 6 -19 5
-19 -13 -2 -19 16 -21 16 -41 -10 -11 -15 -21 -22 -21 -15 0 6 -13 10 -30 9
-16 -1 -30 -7 -30 -14 0 -6 -6 -17 -14 -24 -8 -6 -12 -18 -9 -26 3 -8 0 -14
-6 -14 -6 0 -11 8 -11 18 0 14 -9 17 -50 17 -27 0 -50 3 -50 7 0 4 -7 5 -15 2
-10 -4 -15 0 -15 11 0 29 -25 10 -28 -22 -3 -26 -7 -31 -28 -29 -13 0 -24 6
-24 13 0 13 -30 6 -41 -9 -3 -4 -17 -9 -32 -10 -21 -2 -26 -6 -21 -20 3 -12 0
-18 -10 -18 -9 0 -16 -4 -16 -10 0 -5 5 -10 11 -10 5 0 7 -5 3 -11 -3 -6 -9
-7 -13 -3 -9 13 -46 10 -64 -5 -9 -7 -21 -10 -27 -6 -5 3 -10 -1 -10 -9 0 -10
-6 -13 -17 -9 -10 4 -14 2 -9 -5 4 -7 -4 -9 -24 -7 -16 2 -29 0 -27 -6 1 -5
-11 -17 -27 -27 -16 -9 -38 -25 -48 -34 -10 -10 -22 -18 -27 -18 -6 0 -22 -11
-37 -25 -19 -18 -33 -23 -51 -19 -26 7 -56 -20 -48 -43 2 -7 0 -13 -5 -13 -6
0 -10 5 -10 10 0 6 -5 10 -10 10 -6 0 -8 -16 -5 -38 3 -30 1 -39 -10 -39 -8 0
-15 4 -15 9 0 4 -16 6 -35 3 -32 -4 -34 -2 -25 14 7 14 6 20 -5 24 -9 4 -12 1
-8 -9 6 -16 -12 -20 -22 -4 -10 17 -24 2 -18 -20 3 -12 0 -20 -6 -20 -7 0 -10
4 -7 9 3 5 -2 19 -12 30 l-17 22 -37 -26 c-21 -14 -38 -32 -38 -40 0 -7 -9
-17 -21 -20 -11 -4 -18 -13 -15 -20 3 -8 -7 -15 -27 -19 -21 -4 -28 -9 -19
-15 18 -11 -31 -35 -57 -28 -14 3 -22 -1 -26 -13 -3 -10 -16 -20 -28 -22 -12
-2 -20 -7 -19 -12 2 -5 -3 -13 -12 -18 -8 -5 -13 -15 -9 -24 4 -11 0 -15 -12
-12 -10 2 -20 -3 -22 -9 -3 -7 0 -13 7 -13 6 0 8 -4 5 -10 -3 -5 -1 -10 4 -10
6 0 11 -4 11 -10 0 -5 -9 -10 -20 -10 -12 0 -20 -7 -20 -16 0 -10 -6 -14 -15
-10 -8 3 -15 1 -15 -3 0 -15 -29 -21 -55 -11 -18 7 -25 6 -25 -3 0 -6 -14 -23
-31 -36 -20 -16 -29 -31 -26 -43 6 -20 -8 -25 -16 -5 -4 7 -8 3 -12 -10 -4
-13 -13 -23 -21 -23 -8 0 -11 -6 -7 -16 3 -8 11 -13 18 -10 17 6 6 -47 -12
-57 -10 -6 -11 -13 -2 -28 6 -11 8 -26 6 -34 -3 -7 -1 -17 5 -23 8 -8 8 -15
-1 -25 -9 -11 -8 -17 2 -26 8 -6 18 -7 22 -3 12 10 -28 -60 -42 -76 -7 -7 -14
-10 -14 -5 -1 4 -2 13 -4 18 -1 6 -3 16 -3 23 -1 6 -7 12 -13 12 -6 0 -8 -9
-4 -20 4 -12 2 -20 -6 -20 -8 0 -10 -11 -6 -36 8 -46 -12 -54 -64 -25 -23 13
-47 20 -59 16 -10 -3 -35 -3 -55 1 -32 6 -34 8 -18 20 10 7 14 14 8 14 -5 1
-3 4 6 8 14 6 15 9 3 20 -12 11 -14 10 -14 -3 0 -21 -30 -19 -31 3 0 14 -2 14
-9 -3 -7 -18 -9 -17 -15 11 -6 29 -10 31 -46 30 -21 0 -39 -4 -39 -8 0 -5 5
-8 11 -8 5 0 7 -5 3 -11 -4 -8 -9 -7 -15 2 -4 7 -9 11 -11 9 -2 -3 -9 -16 -16
-28 -12 -22 -12 -23 8 -17 19 6 21 4 15 -14 -4 -12 -2 -21 4 -21 6 0 11 5 11
10 0 6 7 10 15 10 8 0 15 -5 15 -11 0 -5 -4 -8 -9 -5 -5 3 -14 -1 -21 -10 -10
-11 -15 -12 -20 -3 -5 8 -14 5 -29 -10 -11 -11 -27 -21 -35 -21 -22 0 -30 -19
-15 -36 15 -19 4 -31 -15 -15 -12 10 -19 8 -36 -9 -12 -12 -28 -19 -36 -16 -8
3 -12 2 -9 -3 3 -5 1 -12 -4 -16 -6 -3 -8 -12 -4 -20 3 -8 0 -15 -7 -15 -6 0
-9 -4 -6 -9 3 -5 -4 -11 -16 -14 -12 -4 -25 -1 -29 5 -4 6 -14 8 -23 5 -8 -3
-18 -2 -21 3 -4 6 -1 10 6 10 7 0 10 2 7 5 -3 3 -18 1 -33 -5 -22 -8 -33 -7
-52 5 l-24 16 46 41 c44 40 61 76 29 64 -11 -4 -10 1 5 20 26 33 26 42 -1 65
-21 19 -21 19 -1 19 23 0 36 22 27 45 -4 8 -2 15 4 15 6 0 12 -6 15 -12 3 -10
9 -10 26 0 12 7 26 10 31 7 5 -3 12 0 16 6 5 9 -3 10 -31 6 -20 -3 -35 -3 -31
0 3 3 -2 12 -12 19 -16 13 -15 14 6 20 24 7 29 20 10 27 -7 3 -3 6 10 6 12 1
22 -3 22 -8 0 -5 9 -11 20 -14 30 -8 30 -8 30 1 0 4 -4 7 -10 7 -5 0 -18 7
-28 16 -10 8 -24 18 -32 22 -8 4 -25 14 -37 23 -14 10 -23 12 -23 5 0 -6 5
-11 10 -11 13 0 13 -37 -1 -46 -13 -8 -36 13 -25 23 4 4 12 1 17 -7 9 -12 9
-10 3 5 -4 11 -7 31 -8 45 -1 14 -10 33 -21 43 -17 14 -17 16 -3 11 15 -5 17
-2 12 25 -4 20 -3 31 5 31 16 0 14 16 -5 34 -8 9 -12 21 -8 28 5 8 2 9 -9 5
-23 -9 -47 2 -47 21 0 8 -3 12 -7 9 -3 -4 -14 0 -24 8 -18 18 -69 11 -69 -9 0
-6 -20 -19 -44 -29 -24 -10 -47 -25 -50 -33 -4 -11 -11 -12 -23 -6 -10 5 -24
7 -32 4 -9 -3 -11 0 -6 7 4 7 12 10 19 8 19 -7 58 12 50 24 -4 7 -3 9 4 6 14
-9 43 3 36 14 -3 5 -9 7 -14 4 -5 -3 -7 4 -5 15 2 13 -1 20 -11 20 -8 0 -14
-9 -14 -19 0 -10 -7 -22 -16 -25 -9 -3 -12 -11 -8 -18 4 -7 -5 -2 -20 12 -23
21 -29 22 -36 10 -8 -13 -10 -12 -10 3 0 9 -5 17 -10 17 -6 0 -10 -7 -8 -16 2
-9 -4 -18 -13 -19 -9 -2 -27 -6 -40 -9 -23 -7 -23 -6 -4 6 11 7 25 13 30 13 6
0 12 11 13 24 2 15 0 21 -7 17 -6 -4 -11 -5 -11 -2 0 38 65 58 105 32 30 -20
35 -20 35 -1 0 8 -4 15 -10 15 -5 0 -19 9 -30 20 -20 20 -20 20 -1 20 11 0 23
5 26 10 3 6 1 10 -4 10 -6 0 -11 9 -11 20 0 11 -7 20 -15 20 -8 0 -15 -4 -15
-10 0 -5 -5 -10 -11 -10 -8 0 -7 5 1 16 11 13 10 16 -8 21 -29 7 -28 21 1 26
16 3 10 6 -21 12 -28 5 -41 12 -38 20 3 9 -2 11 -16 7 -14 -3 -19 -1 -14 6 4
7 13 12 21 12 7 0 15 6 18 13 3 8 -1 14 -9 14 -8 0 -14 -4 -14 -9 0 -5 -11
-14 -25 -20 -21 -10 -28 -8 -40 8 -13 17 -14 17 -15 2 0 -10 -5 -18 -11 -18
-7 0 -8 11 -4 30 4 20 2 37 -6 46 -11 14 -10 18 6 30 15 11 17 18 9 31 -18 29
-36 28 -28 -1 3 -15 2 -26 -4 -26 -12 0 -25 37 -22 67 1 15 -8 27 -28 37 -16
8 -32 13 -35 9 -4 -3 -18 2 -32 11 -23 15 -26 15 -31 1 -4 -8 -3 -26 0 -40 6
-25 -7 -35 -19 -15 -4 6 -11 8 -16 4 -5 -3 -7 -10 -4 -15 4 -5 1 -9 -4 -9 -6
0 -11 9 -11 20 0 18 -10 25 -32 21 -12 -2 -10 17 2 24 6 4 17 2 25 -5 11 -9
16 -7 24 8 12 23 2 34 -42 51 -18 7 -25 15 -21 26 4 10 0 15 -12 15 -9 0 -26
8 -37 17 -18 17 -19 17 -32 0 -12 -17 -14 -16 -34 9 -13 16 -27 24 -36 20 -8
-3 -15 -1 -15 4 0 6 7 10 15 10 8 0 15 4 15 9 0 13 -32 18 -60 10 -24 -7 -24
-7 -2 -8 12 -1 22 -6 22 -12 0 -6 -6 -9 -14 -6 -9 3 -17 -3 -21 -16 -6 -19 -8
-20 -12 -4 -5 18 -23 24 -23 6 0 -5 -5 -7 -11 -3 -8 4 -7 9 2 15 8 5 10 9 5 9
-5 0 -3 7 5 16 10 13 10 17 -2 25 -8 5 -21 9 -29 9 -12 -1 -12 -3 3 -14 21
-17 22 -26 1 -26 -12 0 -15 -7 -12 -23 3 -17 0 -23 -14 -23 -10 0 -18 8 -18
18 0 17 -3 18 -80 21 -25 1 -51 6 -57 10 -7 5 -18 5 -25 1 -21 -13 -102 -14
-110 -1 -5 8 -8 7 -8 -5 0 -10 -8 -21 -17 -26 -26 -14 -93 -24 -93 -15 0 5
-20 7 -45 5 -43 -4 -56 -14 -35 -27 19 -12 10 -24 -19 -23 -31 1 -91 -22 -91
-35 0 -5 -5 -5 -10 -2 -6 4 -8 11 -5 16 4 5 0 18 -8 29 -14 19 -14 19 -37 -2
-16 -15 -25 -18 -28 -10 -2 7 -10 12 -18 12 -16 0 -16 2 -8 24 3 9 12 16 20
16 18 0 8 49 -12 66 -12 10 -12 13 3 18 10 4 19 2 21 -3 2 -6 8 -11 13 -11 12
0 12 30 -1 31 -5 1 -14 2 -19 3 -26 3 -20 16 7 16 30 0 31 1 20 25 -6 14 -17
24 -23 21 -6 -2 -17 9 -24 25 -15 34 -36 40 -26 7 6 -17 4 -20 -9 -15 -9 4
-16 2 -16 -3 0 -6 -9 -5 -20 2 -16 10 -22 10 -28 1 -11 -17 -49 -5 -55 17 -6
23 -77 34 -93 14 -6 -8 -19 -14 -28 -14 -9 0 -16 -4 -16 -10 0 -5 7 -10 16
-10 8 0 23 -7 32 -16 15 -15 14 -16 -8 -9 -22 7 -23 6 -11 -9 8 -9 9 -16 3
-16 -6 0 -20 13 -31 29 -19 26 -24 28 -45 18 -29 -14 -25 -21 12 -22 20 0 27
-5 27 -20 0 -20 -17 -24 -55 -14 -8 2 -14 -2 -12 -8 1 -7 -4 -13 -12 -13 -8 0
-17 -6 -20 -12 -5 -10 -7 -10 -12 -1 -3 7 -13 9 -21 6 -12 -5 -15 -2 -10 10 6
17 -12 20 -24 4 -7 -10 -69 3 -69 14 0 5 -7 9 -16 9 -11 0 -15 -6 -11 -20 4
-17 1 -19 -19 -14 -15 4 -24 2 -24 -5 0 -6 -4 -11 -10 -11 -5 0 -7 7 -3 16 5
15 3 15 -20 -1 -15 -9 -27 -20 -27 -24 0 -3 -14 -7 -30 -8 -27 -2 -29 0 -20
18 12 22 7 34 -20 49 -16 9 -19 8 -13 -7 5 -15 3 -16 -7 -6 -10 10 -17 10 -28
1 -10 -9 -15 -9 -22 2 -7 12 -11 12 -25 0 -10 -8 -29 -15 -44 -17 -23 -2 -23
-1 -6 7 28 12 2 12 -30 0 -14 -5 -24 -14 -21 -19 3 -5 -3 -11 -14 -14 -11 -3
-23 -1 -26 4 -8 13 -31 11 -47 -6 -8 -8 -17 -11 -21 -8 -3 4 -6 -2 -6 -12 0
-18 -1 -18 -15 1 -12 16 -14 17 -15 3 0 -9 -7 -19 -14 -22 -11 -4 -13 -1 -9
11 6 15 5 15 -10 3 -9 -7 -17 -19 -17 -25 0 -6 -9 -17 -20 -24 -20 -12 -21
-12 -4 13 14 22 14 25 1 25 -8 0 -18 6 -21 13 -4 8 -5 7 -5 -3 2 -29 -1 -40
-12 -40 -6 0 -8 9 -4 21 6 17 3 20 -17 17 -18 -2 -24 -10 -26 -35 -2 -21 -9
-33 -18 -33 -8 0 -12 4 -9 10 3 5 0 7 -8 4 -8 -3 -19 2 -26 10 -10 11 -19 12
-42 4 -16 -5 -36 -7 -45 -4 -8 3 -12 2 -9 -4 9 -14 -9 -12 -23 2 -9 9 -12 5
-12 -19 0 -18 -5 -35 -11 -39 -8 -4 -7 -9 2 -15 10 -6 4 -9 -18 -9 -26 0 -30
-3 -26 -20 4 -16 2 -19 -11 -14 -9 3 -16 9 -16 13 0 4 -9 7 -20 7 -13 0 -20
-7 -20 -18 0 -10 -4 -18 -10 -18 -5 0 -10 5 -10 11 0 7 -8 6 -22 -3 -13 -9
-41 -15 -63 -14 -49 2 -79 -13 -63 -31 8 -10 6 -13 -6 -14 -28 -2 -31 -4 -60
-26 -32 -25 -26 -47 11 -40 18 3 27 -1 33 -17 4 -11 5 -25 3 -29 -3 -5 5 -18
17 -29 12 -11 19 -22 16 -25 -3 -3 -13 2 -22 11 -9 9 -19 14 -23 10 -3 -4 0
-9 7 -11 6 -3 12 -9 12 -14 0 -5 -6 -8 -12 -6 -8 1 -12 -6 -10 -18 13 -74 -3
-135 -34 -135 -19 0 -18 -16 2 -24 8 -3 12 -10 9 -16 -3 -5 -4 -10 -1 -10 2 0
12 -3 22 -7 13 -5 15 -3 9 7 -5 8 -4 11 3 6 6 -4 9 -13 5 -21 -6 -18 -8 -18
-32 -3 -10 6 -26 8 -37 4 -18 -8 -18 -8 0 -15 15 -6 17 -9 6 -16 -8 -5 -18 -2
-26 10 -12 17 -28 15 -30 -3 -3 -24 -18 -39 -34 -35 -17 5 -46 -28 -35 -39 2
-2 -18 -3 -46 -2 -36 1 -52 -3 -59 -15 -9 -15 -11 -15 -20 1 -10 17 -80 23
-80 7 0 -5 -4 -9 -10 -9 -22 0 4 29 31 35 17 4 36 18 44 33 15 26 16 26 9 2
-6 -21 -5 -22 7 -10 8 8 14 27 14 43 0 29 -5 33 -21 17 -7 -7 -9 -1 -6 21 3
20 7 27 13 18 6 -10 11 -10 24 1 21 17 8 29 -35 32 -30 3 -35 0 -38 -19 -2
-13 -8 -23 -13 -23 -12 0 -11 4 2 34 14 29 -2 59 -27 49 -8 -3 -14 1 -14 11 0
10 5 13 17 9 12 -5 14 -3 7 8 -5 8 -9 16 -9 19 -1 13 -21 38 -35 43 -12 4 -11
6 3 6 10 1 26 -14 38 -34 12 -19 25 -32 30 -29 5 3 7 10 4 15 -4 5 -1 9 4 9 6
0 11 -5 11 -11 0 -5 5 -7 10 -4 6 3 10 1 10 -6 0 -7 3 -9 7 -6 8 9 -22 37 -60
56 -19 10 -26 20 -21 33 6 21 4 21 -30 8 -16 -6 -26 -17 -26 -30 0 -11 -4 -20
-10 -20 -13 0 -13 16 2 40 7 10 9 23 5 27 -5 4 -12 2 -16 -6 -6 -9 -10 -8 -14
8 -2 11 2 30 11 42 11 16 12 24 4 27 -15 5 -16 49 -1 54 9 3 9 9 0 26 -16 30
5 65 36 57 12 -3 25 0 28 6 4 6 12 8 19 6 7 -3 23 4 37 14 13 10 29 19 34 19
6 1 26 14 45 30 19 17 40 30 47 30 7 0 13 3 13 8 0 9 74 42 95 42 8 0 23 10
34 22 13 13 32 21 51 20 17 0 30 4 30 11 0 7 9 17 19 22 90 46 169 87 181 94
25 15 74 35 86 36 6 0 18 5 25 11 32 25 114 57 157 61 26 3 61 11 77 18 17 8
62 19 100 26 39 7 72 16 75 21 3 4 26 9 51 12 25 2 63 9 85 14 21 6 64 13 94
16 30 4 91 11 135 17 173 24 471 29 525 9z m13015 6 c11 -2 45 -6 75 -10 60
-8 112 -12 235 -21 44 -3 87 -7 95 -9 8 -1 38 -6 65 -10 28 -4 64 -12 81 -17
17 -5 44 -12 60 -14 16 -2 63 -14 104 -25 41 -12 83 -22 93 -23 9 -1 17 -5 17
-9 0 -4 8 -8 18 -8 9 0 30 -7 46 -15 15 -8 36 -15 45 -15 27 0 264 -84 361
-127 107 -48 169 -80 206 -105 23 -15 61 -38 85 -51 64 -34 88 -48 146 -84 28
-18 54 -33 58 -33 3 0 27 -15 53 -32 26 -18 63 -41 82 -52 19 -10 51 -31 71
-47 20 -16 41 -29 46 -29 13 0 244 -228 317 -312 50 -58 63 -68 91 -68 19 0
39 -8 50 -20 10 -11 24 -20 31 -20 7 0 18 -9 24 -20 6 -11 17 -20 25 -20 8 0
12 -6 9 -14 -3 -8 3 -23 12 -35 13 -14 17 -34 16 -63 -2 -32 0 -39 7 -28 9 12
11 11 11 -9 0 -13 21 -49 48 -81 26 -32 60 -74 76 -94 17 -20 65 -89 108 -154
43 -64 85 -126 94 -137 14 -17 39 -67 58 -115 3 -8 10 -22 15 -30 19 -32 112
-218 116 -230 12 -46 45 -125 74 -179 21 -38 41 -79 44 -92 3 -13 15 -60 25
-104 11 -44 30 -105 42 -135 12 -30 24 -68 26 -84 2 -16 8 -34 13 -40 5 -6 12
-33 16 -61 4 -27 11 -54 15 -60 4 -5 10 -35 13 -65 3 -30 10 -100 16 -155 6
-55 14 -113 18 -130 10 -36 9 -479 -1 -625 -4 -58 -12 -123 -18 -145 -11 -45
-15 -73 -22 -159 -6 -62 -11 -83 -31 -131 -22 -52 -45 -133 -45 -159 0 -14 -4
-26 -8 -26 -4 0 -9 -13 -10 -29 -1 -16 -9 -48 -17 -71 -8 -23 -15 -51 -15 -61
0 -11 -4 -19 -10 -19 -5 0 -12 -16 -16 -35 -3 -19 -12 -39 -19 -45 -8 -6 -17
-26 -21 -43 -3 -18 -13 -41 -20 -52 -8 -11 -14 -27 -14 -37 0 -10 -22 -57 -48
-105 -27 -49 -54 -107 -60 -129 -7 -23 -19 -47 -27 -54 -8 -7 -15 -19 -15 -26
0 -8 -4 -14 -8 -14 -4 0 -13 -12 -19 -27 -15 -33 -26 -52 -74 -118 -20 -27
-44 -65 -54 -84 -9 -19 -32 -50 -51 -69 -18 -19 -39 -47 -46 -63 -7 -16 -16
-29 -20 -29 -5 0 -8 -7 -8 -16 0 -8 -4 -12 -10 -9 -5 3 -10 -1 -10 -9 0 -8
-15 -26 -32 -38 -18 -13 -34 -30 -36 -38 -2 -8 -7 -17 -11 -20 -4 -3 -18 -23
-31 -45 -13 -22 -55 -70 -92 -108 -37 -37 -68 -72 -68 -77 0 -6 -6 -10 -14
-10 -16 0 -76 -53 -76 -68 0 -5 -15 -23 -32 -39 -18 -15 -48 -47 -66 -71 -19
-23 -45 -45 -58 -48 -13 -3 -24 -10 -24 -15 0 -4 -25 -23 -55 -41 -30 -18 -55
-36 -55 -40 0 -5 -5 -8 -10 -8 -6 0 -21 -11 -34 -25 -13 -14 -28 -25 -33 -25
-15 0 -53 -36 -46 -44 3 -3 -2 -6 -13 -6 -10 0 -30 -9 -44 -20 -14 -11 -29
-20 -34 -20 -6 0 -31 -18 -57 -40 -26 -22 -56 -40 -67 -40 -11 0 -22 -6 -25
-14 -6 -14 -106 -66 -157 -81 -14 -4 -41 -18 -60 -31 -19 -13 -39 -24 -45 -24
-6 0 -28 -14 -48 -31 -26 -21 -53 -33 -83 -37 -24 -2 -44 -9 -44 -14 0 -5 -6
-8 -12 -5 -7 2 -25 -2 -39 -9 -14 -7 -40 -12 -58 -12 -17 1 -37 -4 -43 -10 -7
-7 -20 -12 -29 -12 -10 0 -19 -3 -21 -7 -4 -10 -100 -43 -122 -43 -9 0 -16 -3
-16 -7 0 -5 -13 -9 -30 -10 -16 -1 -44 -12 -61 -25 -26 -19 -43 -23 -107 -23
-42 0 -79 -3 -82 -6 -16 -18 -171 -51 -257 -55 -213 -8 -284 -13 -296 -21 -16
-10 -82 -18 -147 -17 -336 5 -449 12 -500 28 -30 9 -91 23 -135 31 -44 7 -93
16 -110 19 -108 20 -133 26 -158 35 -16 6 -38 11 -51 11 -12 0 -39 9 -61 20
-22 11 -51 20 -65 20 -14 0 -38 7 -54 15 -15 8 -37 15 -49 15 -24 0 -134 49
-220 98 -21 12 -43 22 -50 22 -7 0 -37 13 -67 30 -30 16 -61 29 -68 30 -7 0
-25 8 -40 19 -15 10 -61 39 -102 64 -41 26 -80 51 -87 57 -7 5 -18 10 -25 10
-15 0 -141 80 -146 92 -2 4 -8 8 -12 8 -5 0 -20 10 -33 23 -13 12 -62 48 -109
80 -46 32 -100 72 -119 89 -19 16 -51 41 -71 55 -21 14 -40 34 -43 44 -4 11
-11 19 -16 19 -14 0 -331 325 -379 389 -30 40 -72 81 -82 81 -5 0 -8 7 -8 15
0 8 -8 22 -18 32 -11 10 -38 45 -63 78 -24 33 -63 80 -87 105 -24 25 -50 59
-57 75 -8 17 -19 37 -23 45 -5 8 -18 33 -28 55 -10 22 -25 46 -31 53 -7 7 -13
17 -13 22 0 5 -12 22 -26 39 -14 17 -23 31 -19 31 3 0 -4 15 -17 33 -13 17
-23 35 -23 39 0 3 -3 10 -7 14 -5 4 -8 16 -8 26 0 10 -5 18 -11 18 -6 0 -9 6
-6 14 3 8 -1 17 -9 20 -8 3 -14 12 -14 19 0 8 -9 22 -20 32 -11 10 -20 26 -18
34 2 16 -50 131 -64 141 -4 3 -7 16 -8 28 0 12 0 32 0 44 -1 12 -10 37 -22 56
-12 19 -23 46 -25 61 -2 14 -5 33 -6 41 -1 8 -7 24 -13 35 -6 11 -19 45 -29
75 -10 30 -21 59 -26 64 -4 5 -5 22 -2 37 3 19 0 34 -11 44 -9 9 -16 25 -16
36 0 10 -5 19 -11 19 -8 0 -9 11 -5 31 3 18 2 37 -3 43 -8 9 -13 56 -36 291
-3 22 -7 74 -10 115 -4 41 -9 78 -11 82 -12 19 -16 136 -5 142 6 4 8 18 5 31
-3 12 -1 26 5 30 6 3 8 11 5 17 -12 19 -5 210 12 328 2 19 6 53 8 75 2 22 9
67 16 100 7 32 14 71 15 85 5 33 42 176 49 189 4 5 10 29 16 53 25 120 52 223
62 242 7 11 11 26 10 33 -1 6 2 14 8 18 5 3 10 21 10 39 0 18 3 36 7 40 4 3 8
16 10 28 2 12 7 25 11 28 12 9 52 96 52 114 0 9 5 16 10 16 6 0 10 7 10 15 0
8 5 15 10 15 6 0 10 9 10 19 0 11 3 21 8 23 4 2 25 39 47 83 22 43 58 106 81
140 22 33 43 68 47 78 3 9 11 17 16 17 5 0 16 12 24 28 60 116 81 150 110 181
19 20 55 71 82 114 26 43 55 83 65 90 10 7 36 35 57 62 61 76 286 299 318 315
30 15 95 64 95 71 0 5 5 9 10 9 12 0 30 15 113 95 61 59 102 85 134 85 9 0 57
24 105 52 86 51 108 76 100 115 -5 22 24 32 103 37 33 2 75 16 122 40 39 20
80 36 92 36 11 0 23 5 26 10 3 6 15 10 27 10 11 0 75 27 143 60 68 33 128 60
134 60 6 0 11 3 11 8 0 4 10 8 23 9 41 2 112 16 122 23 6 3 23 7 39 8 16 1 36
8 44 15 8 6 25 13 36 14 12 1 41 6 66 11 25 6 63 13 85 16 22 4 67 11 100 18
85 16 111 18 290 18 88 1 176 5 195 10 29 8 211 5 285 -4z m-15771 -102 c91
-20 165 -43 193 -60 12 -8 33 -14 47 -14 13 0 31 -6 38 -14 8 -7 29 -21 47
-30 18 -10 53 -36 77 -59 42 -40 44 -44 38 -83 -5 -37 -3 -43 16 -49 15 -5 25
-2 31 6 4 7 11 10 14 7 4 -4 3 -13 -1 -20 -5 -7 -9 -17 -9 -22 0 -5 -6 -11
-12 -13 -7 -3 -13 3 -13 13 0 16 -1 16 -18 1 -25 -23 -35 -21 -22 2 11 21 8
25 -32 40 -18 7 -33 6 -51 -4 -15 -7 -41 -15 -59 -16 -18 -2 -39 -7 -45 -12
-10 -7 -13 -2 -13 18 0 19 -4 26 -14 22 -7 -3 -26 1 -42 9 -16 9 -39 13 -51
11 -13 -2 -23 0 -23 5 0 5 -24 8 -52 7 -29 -1 -62 2 -72 6 -14 6 -17 5 -12 -3
4 -7 2 -12 -3 -12 -6 0 -11 7 -11 15 0 19 -3 19 -42 -4 -31 -19 -54 -19 -43 0
4 5 -3 9 -14 9 -12 0 -21 -6 -21 -14 0 -8 -8 -13 -17 -12 -10 0 -17 -4 -16
-10 1 -7 -6 -10 -17 -7 -13 3 -20 0 -20 -8 0 -12 -2 -11 -9 0 -14 22 -40 -10
-50 -61 -5 -24 -9 -37 -10 -30 -1 6 -6 12 -12 12 -6 0 -9 -9 -6 -20 3 -10 0
-21 -7 -23 -6 -2 -8 -7 -4 -11 3 -4 18 0 32 9 14 10 26 13 26 7 0 -16 -47 -42
-64 -36 -12 5 -13 10 -5 26 6 11 7 23 3 26 -4 4 -8 3 -11 -3 -9 -26 -25 -40
-30 -27 -7 18 -33 15 -33 -4 0 -10 6 -14 15 -11 8 4 17 1 21 -5 5 -8 -3 -9
-25 -5 -20 4 -30 3 -26 -3 3 -5 -9 -19 -27 -30 -20 -12 -26 -20 -17 -20 9 0
19 -6 22 -13 8 -21 -7 -39 -26 -31 -9 3 -17 2 -17 -4 0 -6 6 -12 13 -15 9 -3
9 -7 -2 -20 -17 -21 -35 -22 -27 -1 4 9 1 14 -6 12 -18 -6 -18 -35 1 -55 21
-22 23 -53 4 -53 -7 0 -13 5 -13 12 0 8 -3 9 -10 2 -18 -18 9 -66 32 -58 12 3
18 0 18 -10 0 -9 -7 -16 -15 -16 -9 0 -20 -12 -26 -27 -9 -23 -7 -30 13 -44
12 -10 19 -21 15 -25 -9 -9 -47 24 -58 51 -7 18 -8 17 -8 -7 -1 -16 4 -28 9
-28 6 0 10 -4 10 -10 0 -5 -15 -10 -34 -10 -19 0 -38 -4 -41 -10 -3 -5 -15
-10 -26 -10 -10 0 -19 -2 -19 -4 0 -2 -3 -13 -7 -23 -6 -15 -4 -16 9 -5 14 11
16 9 15 -21 -1 -24 -7 -37 -21 -43 -11 -5 -22 -16 -24 -24 -4 -12 -1 -12 13 1
16 16 19 16 36 1 14 -12 15 -18 6 -24 -17 -10 13 -63 35 -62 10 1 14 -4 12
-11 -7 -18 -42 -7 -49 16 -5 15 -9 16 -19 6 -11 -10 -10 -16 8 -34 11 -13 29
-23 39 -23 9 0 17 -7 17 -15 0 -9 12 -27 26 -40 15 -14 21 -25 14 -25 -7 0
-10 -7 -6 -16 4 -11 0 -14 -16 -12 -29 4 -48 -43 -30 -72 15 -25 15 -27 -4
-34 -12 -4 -15 -2 -11 9 4 8 2 17 -3 20 -6 4 -10 15 -10 26 0 25 -16 25 -30
-1 -6 -12 -16 -17 -26 -13 -13 5 -15 2 -10 -15 5 -14 1 -24 -11 -31 -16 -9
-16 -11 7 -20 14 -5 19 -10 11 -10 -8 -1 -11 -8 -8 -21 3 -10 0 -21 -7 -24 -7
-3 -6 -8 4 -15 10 -7 17 -6 22 2 4 7 8 8 8 3 0 -5 11 1 25 14 20 19 25 20 25
7 0 -9 5 -19 12 -23 8 -5 9 -2 5 9 -8 20 4 29 23 16 10 -6 11 -9 3 -9 -7 0
-13 -5 -13 -11 0 -6 8 -8 18 -5 11 4 25 -1 36 -13 16 -18 16 -20 -9 -39 -19
-16 -25 -27 -20 -42 4 -11 2 -20 -4 -20 -10 0 -15 17 -14 48 1 6 -5 12 -13 12
-8 0 -14 5 -14 11 0 5 -4 8 -10 4 -5 -3 -1 -14 10 -25 11 -11 20 -25 20 -31 0
-6 -7 -3 -16 5 -8 9 -21 16 -27 16 -8 0 -8 -3 0 -11 8 -8 3 -19 -18 -40 -16
-16 -29 -34 -29 -38 0 -5 -8 -7 -18 -5 -15 4 -17 -2 -16 -46 1 -40 -3 -53 -18
-61 -24 -13 -23 -51 2 -74 14 -13 17 -22 10 -29 -12 -12 -13 -29 -1 -22 5 4
12 -8 16 -24 8 -38 -10 -66 -31 -49 -11 9 -14 7 -14 -8 0 -10 6 -25 13 -33 10
-12 9 -12 -4 -2 -14 10 -18 10 -23 -3 -3 -9 -2 -25 4 -35 7 -13 6 -21 -5 -30
-17 -14 -21 -35 -5 -25 11 7 33 -42 27 -59 -2 -6 0 -21 4 -33 5 -13 5 -23 0
-23 -6 0 -29 -38 -36 -60 -1 -3 -7 -18 -13 -33 -15 -35 -15 -64 -2 -72 7 -4 7
-13 0 -26 -13 -22 7 -27 29 -6 11 10 12 9 5 -3 -11 -20 -11 -43 0 -52 6 -4 4
-13 -4 -23 -10 -12 -10 -21 -2 -38 6 -12 13 -35 15 -52 10 -55 26 -87 42 -81
8 3 15 1 15 -4 0 -6 -9 -10 -20 -10 -11 0 -20 -6 -20 -14 0 -7 -7 -19 -15 -26
-13 -11 -13 -15 -3 -22 10 -7 9 -11 -5 -19 -14 -8 -15 -14 -7 -30 6 -11 8 -29
5 -39 -4 -13 -2 -20 6 -20 8 0 6 -7 -6 -20 -11 -12 -16 -29 -13 -45 4 -19 2
-25 -8 -21 -17 7 -17 5 0 -28 10 -19 11 -38 5 -64 -9 -40 -2 -102 12 -102 5 0
9 7 9 15 0 8 4 15 10 15 5 0 7 -7 3 -16 -4 -10 1 -17 16 -21 11 -3 18 -10 15
-15 -3 -5 -16 -7 -29 -4 -21 5 -23 2 -23 -28 0 -19 -3 -47 -7 -64 -4 -21 -1
-34 11 -46 9 -9 13 -20 9 -24 -4 -4 -10 -1 -12 6 -8 20 -23 14 -23 -10 0 -12
3 -19 6 -15 8 7 44 -24 44 -39 0 -7 -6 -14 -14 -17 -10 -4 -12 1 -9 16 4 21 4
21 -8 3 -10 -16 -9 -21 5 -32 11 -8 13 -14 6 -19 -5 -3 -8 -11 -4 -16 4 -6 11
-6 20 2 9 7 14 8 14 1 0 -6 -9 -14 -21 -17 -17 -6 -18 -9 -8 -22 11 -12 9 -18
-11 -33 -14 -10 -27 -17 -31 -15 -3 2 -6 -9 -6 -25 0 -17 4 -30 9 -30 4 0 8
-18 8 -39 0 -25 5 -41 15 -45 8 -3 15 -14 15 -24 0 -10 9 -27 20 -37 15 -14
17 -21 9 -31 -16 -20 -22 -80 -10 -102 8 -16 7 -21 -5 -26 -8 -3 -13 -10 -10
-14 3 -5 -9 -23 -26 -40 -24 -26 -28 -35 -19 -46 9 -11 9 -15 -1 -19 -10 -4
-10 -8 2 -16 8 -6 10 -11 4 -11 -20 0 -24 -42 -6 -73 16 -27 16 -29 -1 -42
-13 -10 -15 -14 -5 -18 8 -4 7 -6 -4 -6 -19 -1 -20 -21 -3 -33 6 -5 6 -8 -2
-8 -7 0 -11 -16 -10 -45 1 -31 -3 -49 -13 -55 -12 -8 -11 -10 5 -10 11 0 29
-10 39 -22 16 -18 16 -20 2 -15 -14 6 -16 3 -10 -15 6 -20 5 -21 -9 -9 -15 12
-16 10 -6 -18 6 -17 17 -31 25 -31 8 0 17 -7 21 -16 5 -14 9 -13 25 7 l19 24
-6 -32 c-5 -27 -3 -33 11 -33 16 0 16 -1 1 -17 -8 -10 -16 -22 -17 -28 -3 -23
-58 -93 -66 -85 -5 5 -9 -4 -8 -23 0 -18 6 -33 12 -33 25 -3 27 -5 13 -13 -20
-13 -25 -52 -6 -45 9 4 15 0 15 -10 0 -10 5 -13 17 -9 14 5 15 1 9 -35 -6 -38
-4 -42 14 -42 11 0 20 -4 20 -10 0 -5 -7 -10 -15 -10 -9 0 -12 -6 -8 -15 3 -9
-1 -21 -10 -28 -19 -16 -12 -91 9 -83 7 3 16 1 20 -5 3 -6 13 -8 21 -5 8 3 11
1 8 -5 -4 -5 -16 -7 -27 -3 -18 5 -20 3 -13 -12 4 -11 8 -26 9 -34 1 -8 8 -33
15 -54 12 -34 12 -40 -3 -48 -9 -5 -16 -22 -16 -38 0 -16 -4 -32 -10 -35 -16
-10 -12 -28 5 -21 8 3 15 1 15 -4 0 -6 9 -10 20 -10 11 0 20 -5 20 -11 0 -5
-4 -7 -10 -4 -15 9 -11 -6 11 -40 10 -16 23 -40 29 -52 5 -13 14 -23 19 -23 5
0 13 -9 16 -20 6 -18 8 -18 21 -5 23 22 37 19 24 -6 -7 -11 -9 -23 -7 -25 10
-10 69 -7 76 4 4 7 17 1 35 -18 28 -30 56 -40 56 -19 0 6 9 8 20 4 11 -4 20
-2 20 4 0 6 7 8 15 5 8 -4 15 -10 15 -15 0 -4 -8 -5 -17 -2 -16 6 -16 5 -5
-10 8 -9 10 -22 6 -29 -14 -22 -11 -56 5 -50 8 3 12 1 9 -4 -4 -5 1 -18 9 -29
15 -20 15 -20 10 0 -2 11 -8 28 -12 38 -4 10 -3 17 5 17 6 0 9 -4 6 -9 -7 -10
19 -23 28 -14 3 3 3 16 0 28 -4 15 3 31 20 50 14 15 26 23 26 16 0 -6 11 -11
24 -11 20 0 23 4 18 28 -5 25 -4 26 12 13 13 -11 19 -12 25 -3 9 14 65 22 82
11 7 -4 22 -1 33 6 25 16 76 8 76 -11 0 -8 5 -14 10 -14 7 0 7 7 0 21 -10 17
-7 24 17 45 34 29 39 30 39 4 0 -14 -5 -18 -16 -15 -14 4 -16 -1 -11 -27 4
-26 6 -28 9 -10 4 26 15 28 35 8 13 -13 17 -13 33 -1 11 8 17 15 14 15 -3 1
-13 3 -23 5 -23 4 -31 11 -20 18 5 3 27 -7 50 -22 39 -27 102 -35 120 -17 3 3
11 6 17 6 6 0 5 -5 -2 -12 -7 -7 -12 -16 -12 -20 0 -12 28 -10 32 3 2 6 14 8
31 4 15 -4 25 -11 22 -15 -3 -5 1 -11 7 -14 10 -4 9 -8 -2 -18 -8 -7 -15 -26
-14 -43 0 -16 -3 -46 -7 -65 -5 -22 -4 -37 3 -41 6 -4 8 -14 5 -24 -4 -9 -12
-13 -18 -9 -8 4 -7 9 2 15 10 6 10 9 2 9 -6 0 -15 -4 -18 -10 -9 -15 -35 -12
-35 4 0 8 9 18 21 21 11 4 18 12 16 18 -7 21 -23 17 -36 -7 l-14 -24 -26 24
c-14 13 -32 22 -38 19 -7 -2 -13 2 -13 10 0 7 6 15 13 18 6 2 0 2 -14 0 -17
-3 -29 1 -32 11 -4 9 -11 16 -17 16 -6 0 -9 -4 -6 -8 18 -29 -50 -51 -71 -23
-11 14 -12 14 -13 1 0 -8 -8 -24 -17 -35 -14 -18 -15 -19 -9 -1 5 16 4 17 -9
6 -12 -10 -18 -10 -30 0 -13 11 -14 8 -9 -19 6 -28 4 -31 -17 -29 -21 3 -24
-1 -25 -32 -2 -52 -3 -53 -19 -40 -13 11 -18 10 -29 -5 -7 -10 -18 -15 -24
-11 -7 4 -12 1 -12 -8 0 -9 5 -16 11 -16 5 0 7 -5 3 -11 -5 -8 -9 -8 -14 1
-11 18 -30 3 -23 -18 6 -16 5 -16 -13 -1 -23 20 -54 21 -54 2 0 -20 -22 -41
-38 -35 -6 2 -16 -7 -21 -20 -6 -12 -10 -17 -10 -10 -1 18 -15 15 -29 -9 -12
-19 -11 -20 7 -14 12 4 21 2 21 -4 0 -6 -7 -11 -15 -11 -10 0 -15 -10 -15 -30
0 -22 -4 -28 -15 -24 -8 4 -15 13 -15 22 0 13 -3 12 -20 -3 -18 -16 -19 -21
-7 -39 16 -23 39 -34 35 -16 -2 7 3 15 11 18 8 2 11 0 7 -6 -3 -6 -2 -22 3
-35 7 -19 6 -27 -4 -31 -7 -2 -16 2 -19 10 -4 12 -10 12 -26 4 -21 -11 -28
-54 -11 -65 6 -3 6 -17 1 -35 -7 -23 -5 -30 6 -30 8 0 14 -5 14 -11 0 -6 9 -8
20 -4 27 9 38 -21 16 -43 -10 -10 -16 -12 -16 -4 0 7 5 12 11 12 5 0 7 5 4 11
-4 6 -13 8 -21 5 -8 -3 -14 -1 -14 4 0 6 -5 10 -10 10 -6 0 -8 -12 -5 -27 6
-26 5 -27 -8 -10 -10 12 -17 15 -22 7 -10 -16 16 -42 37 -37 14 4 16 1 9 -11
-11 -22 -3 -42 14 -36 7 3 16 0 20 -5 3 -6 10 -9 15 -6 11 7 33 -32 25 -45 -3
-6 -1 -10 6 -10 10 0 10 -3 2 -11 -16 -16 -33 -2 -33 27 0 14 -4 23 -10 19 -5
-3 -7 -21 -5 -40 5 -38 -8 -53 -31 -34 -8 6 -18 9 -21 5 -4 -4 -1 -11 7 -16
11 -7 11 -11 1 -24 -17 -20 -71 -31 -81 -16 -5 9 -9 9 -14 1 -4 -6 -17 -11
-28 -11 -12 0 -30 -8 -40 -17 -14 -13 -21 -14 -30 -5 -9 9 -8 12 6 12 12 0 16
5 12 15 -3 8 -1 15 4 15 5 0 7 6 4 14 -7 17 -44 9 -44 -10 0 -8 -6 -11 -15 -8
-18 7 -20 24 -2 24 6 0 20 12 30 25 17 24 17 25 0 25 -17 1 -17 1 0 14 22 17
22 25 0 42 -10 7 -14 16 -10 20 4 5 12 2 17 -6 11 -18 24 -6 16 15 -4 11 -13
14 -28 10 -18 -5 -19 -4 -8 4 8 5 11 13 7 17 -3 4 -13 1 -22 -6 -13 -11 -15
-9 -15 14 0 28 6 31 29 17 23 -15 54 6 42 27 -11 20 3 52 24 52 16 0 21 16 6
22 -4 2 -11 14 -15 28 -6 19 -5 21 3 10 6 -8 11 -10 11 -4 0 6 -7 18 -16 25
-14 11 -18 11 -29 -5 -13 -17 -14 -16 -26 6 -7 14 -14 18 -17 10 -6 -19 -16
-15 -52 20 -33 31 -36 27 -14 -27 7 -19 7 -19 -13 -2 -15 13 -23 15 -28 7 -4
-7 -2 -16 5 -20 8 -5 9 -13 4 -21 -9 -14 -10 -19 -13 -39 0 -5 -9 -10 -18 -10
-16 -1 -16 -2 2 -16 14 -11 16 -18 8 -21 -22 -8 -14 -20 13 -20 19 0 24 3 19
16 -5 13 -4 14 7 3 11 -11 10 -16 -6 -28 -11 -8 -29 -14 -41 -14 -18 0 -20 -5
-18 -39 1 -25 -4 -44 -13 -51 -9 -8 -14 -9 -14 -2 0 6 5 12 11 14 17 6 -1 37
-21 35 -15 -1 -17 -7 -13 -33 4 -24 0 -37 -17 -54 -22 -22 -22 -22 -1 -15 28
9 26 -3 -6 -38 -25 -26 -25 -28 -5 -18 25 13 29 6 8 -14 -7 -8 -17 -11 -20 -7
-4 3 -6 -13 -5 -36 3 -35 6 -41 21 -36 24 7 23 -8 -1 -23 -25 -16 -33 -50 -14
-68 8 -8 12 -19 9 -24 -5 -7 36 -29 84 -45 11 -3 10 -5 -3 -5 -11 -1 -16 -6
-13 -13 3 -7 9 -21 12 -30 3 -10 14 -16 23 -15 17 2 21 -3 21 -29 0 -13 -3
-14 -14 -5 -9 8 -16 8 -20 2 -7 -10 10 -24 33 -28 24 -3 38 -23 22 -32 -7 -5
-11 -13 -7 -19 3 -5 -1 -13 -10 -16 -9 -4 -14 -9 -11 -13 4 -3 1 -13 -6 -21
-9 -12 -9 -16 0 -19 10 -4 9 -8 -1 -19 -11 -10 -21 -11 -38 -5 -34 14 -128
105 -128 124 0 10 -5 17 -10 17 -15 0 -51 62 -45 78 2 6 0 12 -5 12 -4 0 -11
14 -15 30 -4 17 -10 30 -13 30 -9 0 -32 49 -32 67 0 7 -5 13 -11 13 -8 0 -7 6
2 17 10 11 10 14 2 9 -9 -5 -13 0 -13 13 0 12 1 22 2 24 1 1 -4 12 -10 24 -7
12 -14 68 -17 125 -3 57 -8 132 -10 167 -4 41 -2 67 5 71 12 8 23 80 22 150
-1 160 1 210 9 210 4 0 9 11 11 25 3 14 2 25 -2 25 -3 0 -5 14 -2 30 2 17 -1
36 -7 43 -10 13 -8 112 5 197 3 19 6 64 7 100 1 36 6 71 11 78 14 23 17 342 3
371 -7 14 -11 37 -9 51 2 14 5 52 8 85 3 33 9 64 14 68 4 5 4 24 0 43 -8 33
-6 86 5 154 5 31 13 204 17 373 1 31 5 57 8 57 7 0 7 8 -9 98 -6 32 -6 63 -1
77 6 16 4 29 -5 41 -8 11 -10 25 -5 34 11 22 22 116 22 190 -1 226 2 377 8
384 3 3 1 47 -6 98 -6 51 -9 98 -5 103 3 6 6 38 6 72 0 35 2 63 5 63 8 0 6 84
-3 91 -4 3 0 20 9 38 12 25 14 35 5 40 -6 4 -9 14 -6 23 3 8 2 41 -4 74 -5 32
-6 61 -2 64 3 3 7 55 8 115 2 61 4 147 7 193 2 45 0 82 -5 82 -5 0 -9 7 -9 15
0 8 -5 15 -12 15 -6 0 -8 3 -5 7 4 3 2 12 -5 20 -13 17 -19 73 -6 73 4 0 8 11
8 25 0 15 5 23 13 20 15 -6 17 92 2 103 -12 9 -16 124 -4 116 5 -3 9 2 9 10 0
9 -5 16 -11 16 -8 0 -8 4 0 14 9 11 9 15 0 18 -8 3 -9 9 -4 17 10 17 14 62 18
218 2 67 6 125 10 129 4 4 2 13 -4 21 -9 9 -8 13 0 13 14 0 5 45 -15 78 -9 14
-10 22 -4 22 7 0 9 8 5 20 -3 11 -3 20 2 20 9 0 11 179 2 195 -9 15 2 95 13
95 5 0 8 16 7 34 -2 19 -1 38 3 41 4 4 4 22 1 41 -3 20 -1 34 5 34 5 0 12 17
15 38 14 96 27 161 37 188 6 16 10 29 8 29 -2 0 3 7 10 15 46 54 82 108 82
122 0 10 10 20 25 24 14 3 25 12 25 20 0 8 4 14 9 14 5 0 12 9 16 19 3 10 13
22 23 25 30 11 62 33 56 38 -3 3 11 11 30 18 20 6 36 16 36 21 0 5 7 9 15 9 8
0 15 7 15 15 0 8 7 15 15 15 15 0 25 6 59 37 8 7 16 9 20 6 3 -3 11 -1 19 5
16 14 55 22 137 29 36 3 67 7 69 9 11 10 140 2 205 -12z m2824 -1234 c-1 -18
3 -30 12 -30 5 0 7 7 4 15 -4 10 0 15 11 15 9 0 14 -4 11 -9 -3 -5 7 -14 23
-19 23 -8 28 -15 24 -31 -3 -11 -12 -22 -20 -26 -14 -5 -13 -8 2 -25 10 -11
13 -20 7 -20 -6 0 -12 6 -15 13 -3 9 -7 9 -20 -2 -10 -7 -17 -9 -17 -3 0 6 6
13 13 16 6 3 2 3 -10 0 -13 -3 -23 -1 -23 4 0 6 -9 8 -20 5 -11 -3 -20 -10
-20 -15 0 -5 4 -7 9 -3 6 3 15 -3 20 -14 14 -26 14 -28 -7 -26 -20 1 -62 39
-62 56 0 5 -6 7 -12 3 -7 -4 -5 2 5 13 9 11 15 27 12 35 -3 8 1 21 9 28 9 7
14 16 11 20 -2 4 9 7 24 6 16 -1 29 -3 29 -6z m1647 -1101 c-8 -24 10 -25 24
-1 10 16 12 16 25 0 7 -10 18 -18 24 -18 5 0 12 -7 16 -15 3 -9 12 -12 22 -8
13 5 15 2 10 -15 -6 -17 -4 -21 8 -16 19 7 21 -7 4 -25 -11 -11 -8 -12 14 -7
15 3 30 2 33 -4 3 -5 1 -10 -5 -10 -6 0 -8 -4 -5 -10 10 -16 -6 -34 -16 -19
-8 11 -11 11 -20 -3 -5 -10 -17 -18 -25 -18 -8 0 -14 -6 -13 -12 1 -7 1 -28 0
-46 -1 -26 -5 -33 -18 -30 -10 2 -17 9 -16 15 3 14 -35 24 -43 12 -3 -5 0 -9
6 -9 7 0 9 -8 5 -19 -3 -11 -1 -22 5 -26 7 -4 3 -16 -11 -33 -14 -18 -17 -28
-9 -30 7 -3 16 2 21 9 5 8 9 9 9 4 0 -17 -22 -35 -42 -35 -10 0 -18 -7 -18
-15 0 -8 -4 -15 -10 -15 -5 0 -10 7 -10 15 0 21 -26 19 -42 -4 -9 -12 -19 -17
-27 -12 -10 6 -8 10 6 15 17 7 17 8 -1 22 -24 17 -36 18 -36 3 0 -12 -25 -39
-36 -39 -3 0 -1 7 6 15 16 19 22 85 9 85 -6 0 -8 -4 -5 -9 9 -14 -37 -22 -46
-8 -14 22 -4 42 22 42 19 0 24 4 22 20 -2 11 -9 23 -15 28 -9 5 -8 9 2 16 7 5
10 14 7 20 -4 6 -2 11 4 11 6 0 8 5 5 10 -3 6 -1 10 5 10 6 0 9 4 6 9 -3 5 3
11 13 14 19 5 19 3 4 -29 -17 -35 -11 -56 9 -36 16 16 28 15 28 -3 0 -8 4 -15
9 -15 5 0 11 7 15 15 3 8 1 15 -4 15 -5 0 -6 8 -3 18 6 14 4 15 -9 4 -10 -8
-19 -9 -22 -3 -3 5 7 20 24 34 23 20 26 26 14 31 -8 3 -14 14 -12 23 2 10 -4
19 -14 21 -13 2 -16 -1 -12 -12 3 -9 2 -16 -2 -16 -5 0 -23 -14 -41 -30 -17
-16 -34 -26 -37 -21 -3 5 1 12 10 15 9 3 14 12 11 19 -2 6 3 17 12 24 14 11
14 12 -1 13 -10 0 -18 5 -18 10 0 13 27 13 35 -1 5 -7 11 -5 18 4 15 18 47 29
47 17 0 -6 5 -10 11 -10 16 0 0 20 -23 29 -18 6 -18 8 -4 20 14 11 16 11 16
-3 0 -15 12 -21 33 -17 5 1 6 -3 2 -9 -3 -6 0 -7 9 -4 15 6 20 20 19 51 -1 7
3 10 9 7 5 -3 6 -14 3 -25z m-423 -196 c-10 -4 -8 -9 7 -20 12 -8 21 -19 21
-26 0 -8 -3 -8 -12 1 -15 15 -28 16 -28 2 0 -5 6 -10 13 -10 6 0 25 -7 40 -15
15 -8 34 -12 42 -8 8 3 15 1 15 -5 0 -5 -7 -13 -16 -16 -11 -4 -13 -12 -8 -28
6 -20 5 -21 -8 -10 -13 11 -15 7 -14 -25 1 -35 -1 -38 -28 -38 -17 -1 -30 5
-33 15 -3 8 -11 29 -19 47 -8 17 -14 35 -14 40 0 5 -9 16 -20 26 -28 24 -25
37 11 44 l31 6 -23 13 c-23 13 -22 13 16 13 22 0 34 -3 27 -6z m88 -250 c0 -9
11 -12 35 -8 20 2 33 0 30 -4 -2 -5 2 -14 10 -21 8 -7 13 -16 10 -20 -2 -4 2
-16 10 -26 14 -18 14 -18 15 4 0 13 4 20 10 17 6 -4 7 -11 4 -17 -5 -7 -1 -9
9 -5 11 4 14 2 10 -9 -3 -7 -11 -14 -19 -14 -8 0 -14 -4 -14 -10 0 -5 -7 -10
-15 -10 -19 0 -19 -10 1 -39 12 -17 13 -26 5 -34 -16 -16 -14 -38 7 -53 15
-12 14 -13 -16 -14 -20 0 -31 -4 -27 -10 4 -6 11 -8 16 -5 5 4 6 -7 3 -25 -5
-25 -3 -30 12 -30 18 -1 18 -1 1 -14 -21 -16 -14 -66 9 -66 17 0 18 -12 3 -27
-8 -8 -8 -13 0 -17 6 -4 11 0 11 8 0 9 7 16 15 16 17 0 18 -2 9 -24 -3 -9 -16
-16 -28 -17 -11 0 -15 -3 -8 -6 6 -2 12 -13 12 -23 0 -10 5 -22 12 -26 8 -5 6
-11 -6 -20 -13 -9 -14 -14 -5 -20 7 -4 15 -2 17 4 5 17 19 15 26 -4 3 -8 2
-12 -3 -9 -5 3 -12 1 -15 -4 -3 -5 7 -19 23 -32 21 -16 26 -26 18 -31 -8 -6
-5 -14 13 -27 14 -11 21 -23 17 -27 -4 -4 -7 -2 -7 4 0 7 -7 12 -15 12 -12 0
-13 -3 -3 -19 7 -11 15 -18 19 -16 3 3 4 -7 1 -22 -4 -24 -3 -25 22 -19 15 4
26 2 26 -4 0 -10 -5 -12 -32 -14 -7 -1 -22 -12 -32 -24 -16 -20 -17 -25 -5
-33 12 -8 12 -10 -1 -18 -11 -8 -12 -14 -2 -35 7 -14 17 -37 24 -51 6 -14 17
-25 25 -25 18 0 17 19 -2 26 -8 4 -12 10 -9 16 3 5 17 -7 31 -27 29 -43 64
-45 73 -5 6 24 70 72 70 51 0 -6 -4 -11 -10 -11 -5 0 -10 -4 -10 -9 0 -5 10
-9 23 -8 12 0 30 -3 40 -7 12 -6 17 -4 17 8 0 20 14 21 30 1 7 -9 10 -27 6
-45 -3 -19 -1 -30 5 -30 6 0 8 -7 5 -16 -4 -10 -2 -13 7 -7 6 4 31 8 54 8 35
0 40 -2 30 -15 -7 -8 -18 -19 -25 -23 -10 -6 -9 -15 5 -38 16 -26 16 -31 3
-39 -10 -7 -11 -12 -4 -17 10 -8 27 -43 20 -43 -3 0 -11 -3 -19 -6 -12 -4 -14
0 -11 18 4 22 4 22 -8 -2 -17 -36 -17 -36 -33 -13 -19 27 -63 36 -68 14 -3 -9
-5 -4 -6 12 0 15 -6 27 -12 27 -6 0 -8 -7 -5 -16 8 -20 -11 -54 -29 -54 -8 0
-15 -8 -15 -17 -1 -17 -1 -17 -14 0 -13 17 -42 25 -32 8 8 -12 -3 -41 -15 -41
-5 0 -6 12 -3 28 7 26 6 26 -12 10 -10 -9 -23 -17 -29 -17 -23 -2 -8 -26 20
-31 25 -5 27 -7 11 -13 -11 -4 -16 -13 -12 -22 3 -8 1 -15 -5 -15 -6 0 -8 -4
-5 -9 3 -5 -4 -12 -17 -15 l-22 -7 23 -16 c12 -8 22 -22 22 -30 0 -13 -2 -13
-17 -2 -13 11 -17 11 -20 2 -7 -21 -26 -15 -20 6 3 13 0 18 -8 15 -14 -6 -31
13 -21 23 3 3 16 6 28 7 16 1 22 7 20 19 -2 11 4 17 15 17 11 1 4 7 -16 15
-45 20 -48 19 -56 -15 -5 -23 -12 -30 -31 -30 -15 0 -23 -4 -19 -10 4 -6 11
-8 16 -4 12 7 49 -24 49 -42 0 -7 -6 -15 -12 -18 -7 -3 -3 -3 9 -1 12 3 25 1
28 -6 6 -8 10 -7 16 2 7 11 11 11 17 1 12 -17 62 30 62 58 0 11 5 20 10 20 6
0 10 -8 10 -17 0 -23 39 -63 55 -57 10 4 12 -2 9 -23 -9 -48 -6 -77 8 -87 18
-15 20 -63 3 -70 -8 -3 -17 -1 -20 4 -8 12 -25 13 -25 1 0 -5 9 -11 20 -14 13
-3 18 -10 14 -21 -11 -29 11 -16 24 14 14 31 32 40 32 16 0 -8 -9 -31 -21 -50
-12 -20 -16 -36 -10 -36 6 0 11 3 11 8 0 4 13 16 28 26 l27 20 -19 -22 c-14
-17 -16 -25 -7 -35 9 -11 8 -17 -4 -27 -13 -11 -14 -10 -9 4 8 20 -3 21 -22 1
-9 -8 -25 -15 -36 -15 -20 0 -21 1 -3 20 21 23 8 27 -21 5 -10 -8 -29 -15 -40
-15 -12 0 -27 -7 -34 -15 -16 -20 -34 -19 -26 1 3 8 2 12 -4 9 -6 -3 -10 1
-10 9 0 9 -7 16 -15 16 -8 0 -15 -7 -15 -15 0 -8 -3 -15 -8 -15 -4 0 -13 -9
-19 -20 -13 -20 -8 -50 9 -50 6 0 7 7 4 16 -4 10 -1 14 6 11 7 -2 13 -13 13
-25 0 -12 9 -28 20 -36 11 -8 17 -18 12 -22 -4 -4 -18 3 -32 16 -14 13 -28 20
-32 17 -3 -4 -1 -7 5 -7 7 0 12 -9 12 -20 0 -13 7 -20 20 -20 11 0 20 -7 20
-16 0 -11 -6 -14 -22 -9 -21 6 -20 4 6 -19 16 -14 25 -27 20 -27 -5 -1 -16 -2
-24 -3 -10 -1 -14 -9 -12 -23 2 -13 -2 -23 -7 -23 -6 0 -11 -5 -11 -11 0 -5 5
-7 10 -4 6 3 10 1 10 -4 0 -6 -4 -11 -9 -11 -9 0 -26 -48 -23 -62 1 -5 -5 -8
-14 -8 -8 0 -12 5 -9 10 3 6 1 10 -4 10 -6 0 -11 -9 -11 -19 0 -22 27 -36 44
-22 6 5 40 11 76 12 63 3 66 5 108 49 31 32 45 41 51 32 4 -7 15 -10 23 -7 9
4 19 2 23 -4 3 -6 11 -11 16 -11 6 0 7 5 4 10 -3 6 -3 15 1 21 4 8 9 7 15 -2
9 -14 9 -14 13 24 0 6 11 13 24 15 15 2 22 9 18 17 -5 14 21 14 73 -1 18 -6
22 -4 16 6 -5 9 -4 11 4 6 6 -4 9 -12 6 -17 -4 -5 0 -18 8 -29 13 -19 14 -19
56 4 24 12 47 30 53 39 5 9 16 17 23 17 8 0 15 5 15 11 0 6 -7 9 -15 6 -21 -9
-25 5 -9 28 13 17 16 18 25 5 8 -12 9 -10 4 8 -4 14 -1 28 9 37 20 20 26 19
26 -7 0 -17 3 -19 12 -10 8 8 8 15 -3 28 -11 14 -11 18 6 31 11 7 20 17 20 21
0 4 3 6 8 4 4 -1 7 4 7 12 0 9 7 12 20 9 11 -3 20 -9 20 -14 0 -5 -7 -6 -15
-3 -9 4 -15 1 -15 -7 0 -27 16 -38 58 -40 32 -2 45 2 56 17 18 24 31 13 17
-14 -6 -12 -11 -28 -11 -36 0 -9 -18 -34 -40 -56 -44 -44 -47 -50 -26 -50 8 0
16 -7 20 -15 3 -8 1 -15 -4 -15 -6 0 -10 -6 -10 -13 0 -7 -9 -19 -20 -27 -11
-8 -20 -23 -20 -33 0 -23 21 -45 38 -39 6 2 12 -1 12 -7 0 -14 -16 -14 -40 1
-10 7 -23 8 -27 4 -4 -5 -2 -11 5 -13 21 -8 13 -25 -9 -18 -15 5 -22 2 -26
-14 -4 -16 -9 -19 -18 -11 -9 8 -14 6 -19 -5 -3 -8 -15 -15 -26 -15 -12 0 -19
-4 -16 -9 9 -14 -29 -42 -48 -35 -11 4 -16 1 -16 -12 0 -16 -2 -17 -10 -4 -9
13 -11 13 -20 0 -5 -8 -10 -11 -10 -6 0 5 -9 1 -20 -9 -11 -10 -20 -13 -20 -7
0 6 8 17 18 24 10 7 22 19 26 26 14 23 -9 12 -50 -26 -41 -37 -65 -82 -45 -82
6 0 8 -7 5 -15 -3 -8 8 -34 24 -59 25 -37 28 -46 15 -50 -8 -4 -13 -13 -10
-20 3 -8 -1 -20 -9 -26 -8 -7 -14 -22 -15 -34 0 -21 -1 -20 -11 2 -10 19 -16
22 -42 16 -17 -4 -35 -12 -39 -18 -5 -7 -7 -6 -6 4 1 8 1 22 0 30 -1 13 -2 13
-11 0 -8 -12 -10 -12 -10 -1 0 18 30 40 55 41 11 0 27 11 36 23 15 21 15 22
-6 22 -13 0 -21 -5 -18 -11 3 -7 -5 -10 -21 -7 -14 3 -26 9 -26 14 0 5 -8 9
-17 10 -13 0 -14 2 -4 6 11 5 11 7 0 14 -9 6 0 9 27 9 29 0 41 4 41 15 0 8 -4
15 -9 15 -4 0 -8 7 -8 17 0 9 3 13 7 10 10 -11 33 14 33 37 0 12 -9 29 -20 39
-17 14 -20 14 -20 2 0 -8 5 -15 11 -15 5 0 7 -4 4 -10 -3 -5 -2 -10 4 -10 6 0
8 -7 4 -17 -5 -14 -8 -13 -14 5 -11 29 -33 29 -24 1 5 -15 4 -19 -4 -15 -6 4
-11 14 -11 22 0 20 -18 18 -23 -3 -4 -15 -6 -15 -12 5 -7 22 -16 26 -44 22 -8
-1 -18 4 -22 12 -7 11 -9 11 -9 0 0 -8 14 -28 32 -45 35 -36 35 -36 16 -49
-11 -8 -11 -10 0 -15 14 -6 -2 -17 -65 -47 -32 -15 -58 -48 -45 -60 9 -10 -18
-25 -35 -19 -7 3 -13 11 -13 19 0 8 -4 14 -10 14 -5 0 -10 -5 -10 -11 0 -6 -7
-9 -14 -6 -10 4 -13 1 -9 -9 3 -7 0 -14 -6 -14 -6 0 -11 -7 -11 -16 0 -11 6
-14 20 -9 11 3 26 0 33 -7 12 -11 12 -15 -2 -25 -14 -11 -14 -14 -1 -23 9 -6
10 -10 3 -10 -6 0 -18 9 -26 20 -14 21 -27 17 -27 -7 0 -8 5 -11 10 -8 6 3 10
1 10 -4 0 -22 2 -26 18 -45 16 -18 16 -18 -5 -12 -19 6 -22 4 -17 -11 4 -15 3
-14 -7 2 -7 11 -17 24 -23 28 -7 6 -4 7 7 3 18 -6 24 9 7 19 -6 4 -27 -10 -48
-29 -28 -27 -32 -36 -19 -36 10 0 16 4 12 9 -10 17 15 22 31 6 12 -12 13 -19
5 -29 -9 -11 -5 -15 20 -20 18 -3 38 -1 45 5 21 17 18 -6 -3 -27 -11 -11 -18
-13 -21 -5 -2 6 -8 11 -13 11 -5 0 -2 -11 6 -24 11 -16 13 -26 6 -31 -6 -3
-11 -11 -11 -17 0 -6 9 -3 19 6 26 24 35 4 10 -22 -25 -27 -25 -27 -61 3 -37
32 -50 32 -42 1 5 -23 4 -24 -30 -21 -30 2 -36 0 -36 -16 0 -10 -4 -19 -8 -19
-5 0 -8 -15 -8 -32 2 -34 40 -88 61 -88 8 0 10 -10 7 -26 -3 -20 -2 -25 7 -19
9 5 9 1 -1 -15 -9 -14 -20 -20 -35 -17 -15 3 -23 -1 -23 -9 0 -8 -4 -14 -10
-14 -5 0 -7 -6 -4 -13 3 -8 -7 -22 -21 -33 -16 -12 -25 -28 -25 -47 0 -15 4
-26 9 -23 5 3 7 16 4 29 -4 13 -2 19 3 14 5 -5 10 -13 10 -18 1 -5 2 -10 4
-11 1 -2 3 -22 5 -45 2 -30 0 -40 -10 -37 -16 6 -25 -38 -13 -60 7 -13 4 -16
-16 -16 -24 0 -25 -3 -24 -47 0 -27 5 -54 10 -60 8 -10 6 -13 -6 -13 -9 0 -16
-7 -16 -15 0 -8 5 -15 12 -15 6 0 19 -7 29 -16 15 -13 16 -20 6 -37 -7 -12
-18 -27 -26 -33 -8 -6 -15 -38 -18 -80 -3 -50 -1 -65 6 -54 15 22 13 7 -3 -26
-10 -19 -12 -33 -5 -45 13 -25 11 -32 -6 -25 -13 4 -13 2 -5 -14 15 -27 12
-34 -6 -16 -8 9 -20 16 -25 16 -15 0 -10 -22 9 -36 12 -9 13 -13 3 -14 -7 0
-11 -6 -7 -15 4 -11 -2 -15 -20 -15 -17 0 -27 8 -35 27 -5 14 -16 31 -24 37
-8 6 -16 24 -17 39 -1 15 -12 37 -25 49 -18 17 -20 25 -12 41 8 14 8 18 0 13
-7 -5 -11 3 -12 21 -8 311 -14 405 -27 436 -16 37 -15 40 7 66 19 22 21 66 6
141 -10 45 -7 90 6 106 6 7 9 52 8 103 -2 58 2 95 9 104 7 8 12 28 12 43 0 16
0 36 1 44 1 8 -3 38 -8 65 -6 28 -9 66 -7 85 6 47 6 47 1 113 -3 31 -1 60 4
63 5 3 9 63 7 132 -1 70 2 147 7 171 6 33 5 45 -6 52 -12 8 -12 11 1 22 12 9
15 42 17 160 1 81 -2 147 -6 147 -5 0 -3 21 5 48 8 26 14 67 14 92 -1 25 -1
47 0 50 2 4 7 135 12 305 0 11 -2 33 -4 49 -3 16 -1 48 4 70 15 63 17 105 7
112 -6 3 -6 11 1 19 7 8 9 19 6 24 -4 5 -2 12 3 15 10 6 13 40 14 151 0 39 4
73 9 76 5 3 4 25 -1 50 -7 31 -7 47 2 58 9 10 9 15 1 18 -12 4 -9 56 5 108 4
17 5 39 1 50 -11 29 -34 173 -34 217 -1 21 -4 38 -8 38 -4 0 -6 13 -5 29 1 18
7 27 14 24 7 -3 16 3 20 12 6 17 7 17 20 -1 7 -10 13 -24 13 -31z m5118 -32
c10 -13 12 -11 12 12 0 20 5 27 19 27 26 0 35 -16 15 -24 -15 -6 -15 -8 0 -25
9 -9 13 -21 9 -26 -5 -4 -2 -5 5 -1 7 4 9 12 6 18 -4 6 0 14 7 19 19 12 29 11
29 -2 0 -5 -4 -8 -9 -4 -5 3 -8 -6 -7 -20 3 -29 16 -47 16 -22 0 11 5 14 15
11 11 -5 13 -10 5 -19 -7 -9 -6 -16 5 -25 9 -7 14 -19 11 -25 -3 -8 7 -15 25
-19 29 -5 40 -31 17 -38 -6 -2 -12 -12 -14 -22 -2 -12 3 -16 18 -14 12 2 23
-3 26 -11 3 -8 0 -11 -7 -7 -6 4 -16 4 -22 0 -7 -4 -8 -9 -1 -13 6 -4 4 -12
-6 -21 -14 -13 -15 -12 -9 3 7 18 -7 24 -17 8 -11 -17 6 -43 25 -38 21 6 23
-1 10 -22 -5 -8 -16 -11 -30 -6 -26 8 -27 -2 -4 -28 17 -18 17 -19 -1 -29 -12
-7 -16 -17 -12 -34 5 -18 2 -24 -11 -25 -16 0 -15 -2 2 -9 13 -6 15 -9 5 -9
-10 -1 -7 -6 8 -17 17 -12 20 -19 12 -29 -11 -13 4 -63 25 -77 5 -4 6 -10 1
-15 -4 -4 -12 0 -17 10 -11 19 -29 23 -29 7 0 -6 16 -20 36 -32 21 -12 33 -26
30 -34 -3 -7 0 -16 6 -20 6 -4 -1 -12 -18 -21 -22 -10 -24 -12 -6 -9 25 5 30
-11 7 -20 -19 -8 -20 -24 -2 -24 19 0 60 -47 52 -59 -3 -7 2 -11 14 -11 11 0
23 5 26 10 4 6 10 8 15 5 5 -3 11 -1 15 5 10 16 28 12 21 -5 -3 -8 -1 -15 4
-15 5 0 10 -10 12 -22 2 -14 10 -23 19 -22 12 1 15 -4 11 -20 -5 -19 -4 -19
11 -7 9 7 17 9 17 3 0 -5 -7 -15 -15 -22 -8 -7 -15 -24 -15 -37 0 -20 -4 -24
-20 -20 -13 3 -20 0 -20 -9 0 -17 -12 -18 -29 -1 -11 10 -12 7 -7 -15 4 -17 2
-28 -4 -28 -5 0 -10 6 -10 13 0 8 -3 8 -8 2 -4 -6 -17 -10 -29 -9 -13 1 -25
-7 -32 -23 -7 -15 -7 -22 -1 -18 6 4 10 -5 10 -19 0 -17 6 -26 16 -26 8 0 12
-5 9 -11 -9 -14 -13 -69 -5 -69 3 0 12 6 19 13 12 10 13 9 7 -7 -4 -13 -2 -17
8 -13 10 4 13 1 9 -9 -3 -7 -1 -14 5 -14 5 0 9 -8 8 -17 -1 -13 5 -17 21 -15
20 3 22 -1 20 -38 -2 -29 2 -44 13 -50 13 -7 12 -10 -5 -16 -11 -4 -23 -12
-27 -18 -4 -6 -22 -11 -40 -11 -23 0 -35 -6 -44 -22 -6 -13 -13 -21 -15 -19
-2 2 -5 -7 -5 -20 -2 -33 11 -30 26 6 12 29 30 41 30 20 0 -5 -5 -10 -11 -10
-5 0 -8 -4 -5 -9 9 -14 -32 -54 -48 -48 -17 7 -25 -10 -18 -35 6 -25 20 -22
25 5 4 16 5 14 5 -8 -1 -16 4 -41 9 -55 23 -57 25 -70 9 -64 -21 8 -20 -6 1
-22 10 -7 15 -16 11 -19 -4 -4 -14 0 -23 9 -9 9 -17 16 -19 16 -1 0 -1 -18 0
-40 1 -24 -3 -40 -10 -40 -6 0 -3 -5 7 -11 12 -7 16 -17 12 -30 -3 -10 -2 -26
3 -35 7 -12 1 -29 -21 -61 -22 -33 -27 -47 -18 -56 6 -6 11 -19 11 -28 0 -10
5 -19 12 -21 6 -2 11 -21 10 -41 -1 -20 3 -37 9 -37 6 0 7 5 4 10 -3 6 -1 10
4 10 11 0 15 -14 11 -39 -1 -8 4 -12 13 -8 14 5 37 -10 37 -25 0 -4 -6 -7 -12
-6 -8 2 -12 -6 -11 -20 2 -13 -1 -21 -6 -17 -5 3 -12 1 -16 -5 -4 -6 -11 -7
-17 -4 -7 5 -9 -10 -5 -47 4 -30 7 -57 7 -61 0 -17 20 -7 20 10 1 15 2 15 13
2 7 -9 21 -14 31 -12 10 2 23 -3 28 -12 5 -9 16 -16 23 -16 8 0 15 -8 16 -17
0 -10 3 -13 5 -6 3 7 12 9 20 6 24 -9 16 -20 -16 -21 -20 0 -28 3 -24 10 5 7
1 9 -9 5 -12 -5 -17 -1 -17 13 0 13 -7 20 -20 20 -20 0 -26 -11 -13 -24 9 -9
13 -38 6 -49 -3 -5 -9 -3 -14 4 -15 25 -24 -3 -22 -69 2 -82 8 -148 18 -186 6
-22 5 -27 -5 -21 -9 5 -11 4 -6 -3 11 -18 26 -14 26 6 0 9 7 26 15 36 15 20
15 20 15 0 0 -11 -5 -25 -11 -31 -6 -6 -8 -16 -4 -23 8 -13 35 32 35 58 0 11
3 13 10 6 12 -12 3 -44 -12 -44 -5 0 -6 -9 -3 -20 5 -15 2 -20 -14 -20 -30 0
-36 -19 -9 -29 21 -9 21 -10 3 -12 -11 -1 -28 -2 -37 -1 -22 2 -23 -5 -3 -24
8 -9 15 -21 15 -27 0 -7 -4 -6 -10 3 -12 19 -22 8 -26 -32 -2 -17 -8 -34 -12
-37 -16 -11 -23 -44 -10 -52 7 -4 9 -11 6 -15 -4 -3 -15 2 -25 11 -12 12 -18
14 -21 6 -2 -7 4 -18 13 -25 13 -10 15 -17 8 -32 -6 -10 -8 -25 -6 -31 3 -7 1
-13 -4 -13 -8 0 -8 -22 0 -102 3 -23 0 -38 -6 -38 -7 0 -7 -4 1 -12 7 -7 12
-20 12 -30 0 -10 7 -18 15 -18 8 0 12 -6 9 -14 -9 -22 15 -61 29 -47 6 6 17
11 25 11 12 0 12 -3 2 -15 -10 -13 -9 -15 9 -15 16 0 21 -6 21 -25 0 -28 -20
-35 -20 -7 -1 37 -28 -33 -28 -73 0 -22 -8 -53 -16 -70 -9 -16 -16 -26 -16
-21 0 5 -3 6 -7 2 -4 -4 6 -18 22 -33 27 -23 28 -25 7 -18 -21 6 -23 4 -21
-17 2 -12 0 -28 -4 -35 -4 -6 -3 -14 3 -18 18 -11 11 -27 -10 -22 -21 5 -28
-7 -10 -18 6 -4 8 -10 5 -15 -3 -4 5 -10 16 -13 12 -3 18 -10 15 -16 -4 -6
-13 -8 -20 -5 -8 3 -17 1 -21 -5 -3 -6 0 -13 7 -16 7 -3 14 -23 16 -45 2 -32
-1 -40 -15 -41 -11 0 -13 -3 -5 -6 6 -2 12 -11 12 -19 0 -8 7 -17 15 -20 12
-5 11 -11 -8 -34 -23 -31 -61 -41 -51 -15 4 8 1 15 -7 15 -7 0 -10 3 -7 6 4 3
-8 33 -25 67 -28 57 -38 94 -52 184 -3 18 -9 43 -14 55 -4 13 -9 75 -11 138
-1 63 -3 142 -5 175 -1 33 1 62 5 65 5 3 5 25 0 50 -5 25 -6 49 -3 53 9 14 5
138 -6 216 -7 43 -8 78 -2 85 5 6 5 20 2 30 -4 10 -4 42 -1 70 7 59 5 159 -3
173 -6 10 0 211 8 222 2 4 -2 19 -10 34 -7 15 -11 29 -7 31 4 2 6 49 5 103 -2
54 -4 202 -4 328 -1 152 -6 235 -13 244 -8 12 -8 13 2 7 9 -6 11 -2 7 16 -7
26 -9 134 -7 253 3 89 -3 180 -12 194 -4 5 1 17 11 26 11 12 13 19 5 24 -7 4
-8 12 -2 21 12 18 13 33 3 27 -12 -8 -13 16 -12 298 0 128 -5 192 -15 202 -3
3 -6 19 -6 34 0 15 -4 31 -10 34 -5 3 -10 11 -10 17 0 6 3 8 7 5 3 -4 12 2 20
13 12 17 12 24 -1 48 -8 15 -19 50 -25 77 -5 28 -15 72 -21 98 -9 35 -9 51 -1
61 13 15 4 49 -10 40 -5 -3 -9 2 -9 12 0 14 3 15 18 3 9 -7 23 -20 30 -28z
m-4322 -538 c-4 -13 2 -22 21 -30 31 -15 41 -10 23 12 -13 16 -10 18 14 9 11
-4 14 -13 10 -30 -3 -13 -2 -24 3 -24 5 0 10 -13 10 -30 0 -38 -30 -50 -59
-24 -19 18 -20 18 -29 1 -14 -24 -108 -20 -127 6 -7 9 -18 17 -24 17 -6 0 -7
-7 -3 -17 4 -10 9 -24 12 -30 3 -7 0 -13 -5 -13 -6 0 -13 9 -17 19 -7 24 -44
35 -52 15 -6 -16 -43 -19 -43 -3 0 5 5 7 11 3 6 -3 15 0 20 7 12 18 11 62 0
55 -17 -11 -41 6 -40 28 0 21 0 21 11 -1 11 -23 28 -31 28 -14 0 4 11 6 23 4
14 -3 31 2 41 12 13 14 19 15 31 5 13 -10 15 -8 16 11 1 14 3 17 6 8 3 -11 12
-14 33 -11 17 2 30 9 30 14 0 6 9 8 20 5 11 -3 23 -1 26 4 9 15 16 10 10 -8z
m-51 -275 c14 -31 52 -49 81 -38 18 7 22 6 17 -5 -3 -8 0 -15 7 -15 6 0 8 -5
4 -11 -5 -8 -9 -7 -14 1 -10 17 -40 5 -40 -15 0 -8 4 -15 9 -15 5 0 7 -8 4
-19 -2 -10 -12 -18 -21 -17 -10 1 -16 -6 -16 -16 1 -11 -5 -18 -17 -18 -21 0
-26 -29 -8 -47 8 -8 5 -14 -10 -23 -23 -12 -20 -33 4 -23 8 3 15 1 15 -5 0 -5
-9 -12 -20 -15 -11 -3 -24 -17 -30 -32 -9 -23 -12 -25 -25 -11 -18 18 -19 29
-3 24 13 -5 38 14 38 27 0 4 -6 12 -13 20 -16 16 -39 5 -34 -16 2 -8 2 -11 0
-6 -9 15 -45 6 -50 -13 -3 -11 -12 -20 -19 -20 -17 0 -18 16 -3 26 8 4 8 9 0
17 -17 17 -13 55 8 69 29 21 28 31 -4 44 -16 7 -24 13 -17 14 10 0 12 9 7 31
-6 24 -4 30 6 27 27 -10 51 12 44 39 -6 24 -4 25 25 21 26 -4 33 -1 41 19 11
29 21 29 34 1z m348 -717 c13 -25 12 -29 -4 -40 -11 -6 -19 -17 -19 -24 0 -9
-12 -13 -34 -12 -23 0 -32 -3 -29 -12 3 -7 -2 -16 -11 -19 -9 -3 -16 -15 -16
-26 0 -17 -5 -19 -25 -14 -18 5 -25 2 -25 -9 0 -8 -5 -15 -11 -15 -6 0 -8 9
-4 20 7 21 -10 28 -18 8 -3 -9 -10 -7 -21 7 -20 25 -21 41 -1 25 12 -10 16 -9
21 4 3 9 13 16 21 16 8 0 11 -4 8 -10 -3 -6 1 -7 10 -3 12 4 13 8 5 13 -9 6
-9 9 1 16 7 4 14 3 17 -4 6 -20 22 -3 22 24 0 25 -15 33 -23 12 -2 -7 -8 -9
-13 -5 -5 4 -2 12 5 16 8 5 11 17 6 30 -5 15 -2 21 9 21 9 0 16 -5 16 -11 0
-6 7 -9 15 -5 8 3 15 1 15 -4 0 -6 -4 -10 -10 -10 -5 0 -10 -4 -10 -10 0 -20
20 -10 25 13 6 21 42 47 57 40 4 -2 13 -16 21 -32z m-5053 -1360 c0 -11 -4
-21 -9 -23 -4 -1 -11 -13 -15 -25 -6 -18 -4 -22 8 -17 9 3 16 15 16 25 0 14 8
19 28 20 16 1 20 3 10 6 -20 5 -24 18 -9 28 17 10 63 -42 57 -63 -7 -22 23
-41 34 -22 5 7 11 6 20 -5 16 -20 30 -19 30 1 0 11 5 14 16 10 9 -4 23 -1 30
5 11 9 14 8 14 -5 0 -20 24 -21 40 -1 7 8 17 15 23 15 5 0 2 -9 -9 -21 -18
-20 -18 -20 11 -14 22 5 26 4 15 -4 -24 -16 -6 -21 23 -6 15 8 27 10 27 4 0
-5 -4 -9 -10 -9 -5 0 -10 -4 -10 -10 0 -5 8 -10 19 -10 29 0 13 -64 -18 -68
-15 -2 -21 -8 -17 -18 4 -12 2 -12 -14 -4 -11 6 -20 16 -20 23 0 7 -6 3 -12
-7 -8 -15 -7 -22 6 -31 9 -7 16 -16 16 -20 0 -4 -7 -2 -15 5 -12 10 -15 9 -15
-7 0 -26 -10 -35 -26 -23 -8 8 -17 6 -28 -5 -9 -10 -24 -14 -35 -10 -16 5 -18
2 -14 -15 4 -17 2 -19 -13 -13 -16 6 -17 4 -6 -9 10 -13 10 -17 -4 -22 -9 -3
-14 -13 -11 -20 3 -8 -1 -20 -9 -27 -12 -10 -13 -9 -8 5 6 14 2 16 -22 10 -40
-9 -44 -12 -54 -40 -5 -13 -14 -24 -20 -24 -6 0 -8 6 -5 13 4 6 -1 3 -9 -7
-10 -12 -12 -24 -7 -29 5 -5 7 -17 5 -26 -3 -9 1 -6 7 7 7 12 16 22 21 22 11
0 10 -17 -2 -25 -15 -9 -12 -25 5 -25 8 0 15 5 15 10 0 6 5 10 11 10 6 0 9 -6
6 -14 -3 -8 1 -17 9 -20 19 -7 18 -26 -1 -26 -8 0 -15 7 -15 15 0 18 -1 18
-34 5 -21 -7 -26 -6 -26 5 0 8 -6 12 -14 9 -8 -3 -16 3 -19 16 -3 14 -10 19
-17 15 -7 -4 -16 -1 -21 6 -4 8 -13 15 -19 15 -23 3 -24 5 -10 14 13 9 13 12
-2 24 -10 7 -14 17 -10 21 4 5 0 6 -10 2 -27 -10 -29 4 -3 25 l25 20 -22 19
-23 20 22 -6 c18 -5 22 -3 17 9 -5 12 -2 15 10 10 12 -5 18 2 22 26 4 17 13
34 20 37 8 3 14 12 14 21 0 13 3 12 15 -4 12 -15 14 -16 9 -2 -3 10 1 25 11
35 17 16 17 16 11 -5 -6 -17 -4 -21 8 -16 22 9 20 16 -12 47 -25 24 -30 25
-48 13 -30 -22 -94 -29 -94 -12 0 24 -20 29 -35 10 -9 -11 -14 -14 -15 -6 0 6
-4 12 -9 12 -5 0 -7 -9 -4 -20 3 -11 0 -20 -6 -20 -13 0 -31 42 -31 73 0 18 2
19 10 7 9 -13 11 -13 19 0 6 8 22 15 38 16 15 1 31 3 35 3 19 2 45 44 40 63
-3 14 -1 19 6 14 6 -3 15 2 21 11 6 10 11 15 11 11 0 -4 10 -3 23 2 33 13 37
12 37 -9z m-260 -480 c0 -5 15 -13 33 -16 57 -13 77 -48 21 -37 -20 4 -25 1
-22 -9 3 -9 17 -13 41 -11 32 3 37 0 43 -22 4 -16 11 -23 20 -19 8 3 14 1 14
-3 0 -5 -17 -14 -37 -21 -32 -10 -40 -10 -50 4 -11 14 -13 14 -27 0 -9 -9 -16
-20 -16 -26 0 -5 -9 -16 -20 -24 -11 -8 -17 -17 -13 -20 11 -12 23 -8 23 8 0
8 4 15 9 15 5 0 9 -10 9 -23 0 -19 -5 -23 -27 -22 -41 3 -83 27 -76 43 4 10 1
12 -12 7 -10 -4 -30 -10 -46 -13 -18 -3 -25 -8 -20 -16 5 -7 1 -5 -7 4 -9 9
-22 15 -30 13 -9 -3 -7 1 3 7 15 10 17 19 12 46 -4 22 -2 34 5 34 6 0 9 4 6 9
-9 14 16 20 38 9 13 -7 21 -6 26 3 5 7 28 14 52 16 53 5 66 16 44 38 -18 18
-21 35 -6 35 6 0 10 -4 10 -9z m227 -396 c-5 -10 4 -16 31 -20 20 -4 44 -9 52
-13 8 -3 21 -6 29 -6 45 -2 -3 -46 -50 -46 -11 0 -17 -4 -14 -10 4 -6 -8 -10
-29 -10 -28 0 -38 6 -52 30 -17 28 -19 28 -36 13 -25 -22 -23 -33 7 -33 14 0
25 -5 25 -11 0 -7 -15 -9 -44 -5 -34 5 -48 2 -61 -10 -11 -12 -20 -13 -27 -6
-12 12 -1 55 13 46 5 -3 6 -10 3 -16 -5 -8 -1 -9 10 -5 10 4 22 7 28 7 18 0
-23 40 -41 40 -13 1 -13 2 2 11 14 8 23 7 36 -5 20 -18 31 -20 31 -6 0 6 -7
10 -15 10 -8 0 -15 7 -15 15 0 8 5 15 10 15 6 0 10 -5 10 -11 0 -6 10 -9 23
-7 13 2 29 -1 35 -9 14 -15 32 -17 32 -4 0 5 -7 14 -15 21 -13 11 -13 14 2 26
23 17 26 17 20 -1z m-274 -88 c19 -10 23 -17 16 -24 -8 -8 -7 -17 1 -32 6 -12
8 -27 4 -33 -4 -6 -3 -8 4 -5 5 4 18 4 28 0 16 -6 16 -7 0 -19 -16 -11 -16
-13 1 -23 17 -10 16 -10 -4 -11 -12 0 -29 -3 -38 -7 -14 -5 -16 -2 -11 15 4
11 2 23 -3 26 -5 4 -12 -2 -16 -13 -3 -11 -12 -22 -21 -25 -12 -4 -12 -2 -4
14 16 30 -15 15 -36 -18 -16 -24 -18 -25 -24 -7 -6 18 -7 18 -12 -3 -4 -15 -2
-22 7 -22 8 0 17 -4 20 -10 3 -5 0 -7 -8 -4 -8 3 -18 1 -22 -5 -3 -6 -1 -11 5
-11 7 0 10 -6 7 -14 -3 -7 2 -24 10 -37 9 -13 13 -21 9 -18 -4 4 -28 0 -53 -7
-37 -11 -48 -12 -54 -2 -4 7 -11 9 -15 5 -9 -8 -34 39 -34 63 0 10 7 21 16 24
11 4 19 -3 27 -24 12 -32 27 -40 27 -14 0 12 7 15 23 12 21 -4 24 -1 23 29 -1
25 -5 32 -17 28 -22 -7 -42 19 -34 44 3 10 1 22 -5 26 -5 3 -10 -1 -10 -9 0
-9 -5 -16 -11 -16 -7 0 -8 16 -3 45 4 27 2 50 -4 58 -8 9 -4 12 16 14 15 0 30
-4 34 -10 5 -8 9 -6 14 6 8 21 27 22 57 3 27 -17 87 -29 87 -17 0 5 -7 11 -15
15 -8 3 -15 10 -15 16 0 13 3 13 33 -3z"/>
<path d="M34640 18327 c-19 -6 -37 -14 -40 -19 -3 -4 -21 -4 -40 1 -37 10 -95
9 -120 -1 -49 -20 -114 -37 -121 -32 -5 3 -9 0 -9 -6 0 -7 -8 -9 -19 -5 -11 3
-22 1 -26 -5 -3 -6 -10 -8 -15 -5 -4 3 -10 -2 -14 -10 -3 -8 -12 -15 -21 -15
-8 0 -15 -5 -15 -11 0 -6 -7 -9 -15 -6 -8 4 -17 2 -20 -4 -4 -5 -10 -7 -15 -4
-5 3 -30 -8 -56 -24 -26 -17 -50 -28 -55 -26 -9 6 -59 -15 -59 -26 0 -4 -13
-10 -29 -14 -16 -3 -32 -13 -35 -22 -4 -8 -13 -13 -20 -10 -8 3 -17 -1 -20
-10 -4 -8 -13 -13 -21 -9 -9 3 -15 -1 -15 -10 0 -10 -6 -14 -15 -10 -8 3 -15
0 -15 -7 -1 -11 -104 -83 -143 -99 -9 -4 -20 -14 -23 -23 -4 -8 -12 -15 -19
-15 -7 0 -15 -3 -17 -7 -4 -11 -65 -53 -76 -53 -10 0 -52 -47 -52 -58 0 -5
-19 -29 -42 -55 -46 -49 -87 -100 -103 -127 -36 -61 -53 -98 -48 -104 4 -3 1
-6 -5 -6 -7 0 -12 -6 -12 -14 0 -7 -11 -21 -24 -32 -14 -10 -27 -28 -31 -41
-3 -13 -10 -23 -15 -23 -6 0 -10 -5 -10 -12 0 -6 -10 -25 -23 -42 -25 -33 -47
-98 -47 -138 0 -13 -5 -29 -11 -35 -10 -10 -59 -188 -83 -303 -6 -30 -15 -60
-19 -67 -11 -18 -10 -247 2 -398 13 -161 29 -262 47 -297 8 -15 14 -42 14 -61
0 -19 7 -49 16 -67 9 -18 19 -52 22 -76 2 -24 9 -44 13 -44 5 0 9 -7 9 -16 0
-9 7 -31 15 -50 8 -19 22 -51 31 -71 10 -21 20 -40 23 -43 11 -8 45 -63 57
-91 7 -14 28 -48 48 -75 20 -27 50 -69 68 -94 86 -120 195 -233 292 -305 37
-27 79 -60 94 -72 15 -13 35 -23 45 -23 9 0 17 -4 17 -10 0 -5 17 -14 38 -19
21 -6 51 -25 67 -42 36 -37 108 -79 206 -120 85 -36 242 -89 279 -94 14 -2 42
-8 63 -13 45 -12 279 -26 422 -25 114 0 167 6 234 26 56 18 97 28 221 57 113
26 188 52 245 85 23 14 47 25 52 25 16 0 173 90 173 99 0 4 19 18 43 31 23 13
58 38 77 55 80 70 255 254 292 308 23 31 44 57 49 57 4 0 10 9 14 19 3 11 16
32 28 47 22 29 25 37 34 92 4 23 1 32 -9 32 -12 0 -88 103 -88 120 0 4 12 19
27 34 22 22 35 27 67 25 81 -5 91 -1 105 36 6 19 11 36 10 37 -2 2 4 17 13 33
9 17 23 62 32 100 9 39 21 86 26 105 27 99 33 395 10 466 -8 21 -15 68 -16
103 -4 108 -15 180 -30 192 -8 6 -14 26 -14 45 0 19 -6 37 -15 42 -9 4 -17 20
-19 35 -1 15 -9 35 -18 44 -21 26 -37 71 -43 128 -8 79 -26 159 -39 175 -16
19 -46 84 -46 99 0 6 -4 11 -8 11 -4 0 -14 17 -21 38 -19 57 -45 112 -53 112
-5 0 -8 4 -8 10 0 29 -173 260 -195 260 -4 0 -23 17 -43 39 -20 21 -57 50 -82
64 -25 14 -54 34 -65 44 -11 10 -54 38 -95 62 -41 25 -77 47 -80 51 -3 4 -31
19 -62 35 -32 16 -58 32 -58 35 0 3 -11 7 -25 8 -14 1 -40 10 -58 19 -42 22
-166 63 -193 63 -12 0 -37 6 -55 14 -19 7 -63 17 -99 21 -36 3 -78 9 -95 12
-56 11 -340 10 -375 0z"/>
<path d="M26746 18223 c-2 -2 -45 -6 -97 -9 -346 -20 -369 -23 -369 -46 0 -6
-9 -8 -20 -5 -10 3 -20 1 -22 -4 -2 -5 -21 -11 -43 -13 -55 -6 -101 -25 -157
-64 -26 -17 -54 -32 -62 -32 -8 0 -35 -11 -60 -25 -25 -14 -50 -25 -56 -25 -7
0 -30 -16 -53 -35 -22 -19 -48 -35 -58 -35 -26 0 -50 -11 -44 -20 3 -5 -4 -11
-15 -15 -11 -3 -20 -11 -20 -16 0 -5 -7 -9 -14 -9 -8 0 -27 -11 -42 -25 -15
-14 -33 -25 -41 -25 -37 0 -279 -235 -310 -300 -9 -19 -27 -49 -39 -66 -33
-44 -81 -143 -89 -182 -8 -37 -63 -132 -76 -132 -5 0 -8 -3 -8 -7 1 -5 0 -10
-1 -13 -1 -3 -4 -16 -5 -30 -2 -14 -17 -81 -35 -150 -17 -69 -32 -138 -32
-153 -1 -15 -5 -30 -9 -33 -7 -4 -11 -31 -25 -169 -9 -92 -1 -428 12 -499 4
-22 7 -45 6 -49 -1 -4 3 -18 10 -30 12 -23 66 -230 74 -282 2 -16 9 -31 14
-33 6 -2 10 -10 10 -18 0 -8 5 -14 10 -14 6 0 10 -9 10 -21 0 -11 21 -52 46
-92 75 -117 78 -121 94 -150 20 -37 112 -171 121 -177 4 -3 71 -67 148 -142
122 -120 161 -152 239 -203 9 -5 50 -33 92 -60 41 -28 93 -59 115 -70 22 -11
47 -25 55 -31 8 -6 35 -16 60 -23 25 -7 71 -26 102 -42 32 -17 67 -32 78 -34
12 -2 35 -11 52 -20 17 -8 41 -15 52 -15 12 -1 39 -8 61 -16 22 -8 78 -17 125
-19 248 -13 332 -14 381 -4 30 6 69 12 87 14 76 8 237 38 242 46 3 4 21 11 40
14 68 12 215 67 280 106 36 21 69 39 72 39 24 0 193 115 246 167 35 34 68 63
73 63 4 0 34 25 66 56 32 31 70 63 85 72 14 8 32 27 40 41 7 14 15 28 18 31
15 15 123 164 158 220 23 36 46 70 52 77 5 7 10 19 10 26 0 8 20 54 45 102 25
48 47 94 48 104 1 9 6 22 10 28 14 22 35 155 31 191 -3 20 4 72 15 116 13 56
19 110 17 174 -1 52 3 124 10 161 11 69 11 97 0 166 -22 138 -42 224 -57 241
-6 7 -12 23 -13 36 -9 73 -19 124 -26 133 -5 6 -11 27 -15 48 -4 20 -11 37
-16 37 -5 0 -9 8 -9 18 0 10 -3 22 -7 26 -5 4 -8 11 -9 14 -3 28 -19 70 -32
85 -8 9 -13 17 -10 17 4 0 -6 13 -22 30 -15 16 -30 42 -33 58 -3 16 -20 43
-36 61 -17 18 -31 39 -31 46 0 7 -7 15 -15 19 -8 3 -15 13 -15 23 0 10 -11 35
-25 55 -14 20 -25 42 -25 47 0 6 -4 11 -9 11 -5 0 -23 23 -41 50 -18 28 -45
57 -61 65 -15 8 -34 23 -41 32 -7 10 -33 32 -58 48 -25 17 -61 46 -80 65 -69
70 -180 153 -180 135 0 -4 -12 2 -27 13 -49 34 -226 120 -303 147 -41 15 -84
31 -95 36 -12 6 -27 11 -35 13 -8 2 -22 6 -30 9 -8 3 -31 8 -50 11 -19 3 -73
12 -120 21 -77 15 -275 27 -284 18z"/>
</g>
</svg>
